<svg width="1200" height="630" viewBox="0 0 1200 630" xmlns="http://www.w3.org/2000/svg"><mask id="satori_om-id"><rect x="0" y="0" width="1200" height="630" fill="#fff"/></mask><rect x="0" y="0" width="1200" height="630" fill="#30a46c"/><mask id="satori_om-id-0"><rect x="390" y="230" width="420" height="68" fill="#fff"/></mask><path fill="#fff" d="M401.2 282.9L395.8 282.9L395.8 240.0L428.2 240.0L428.2 282.9L422.8 282.9L422.8 244.8L401.2 244.8L401.2 282.9ZM444.4 297.3L439.1 297.3L439.1 250.7L443.4 250.7L444.1 255.1L444.4 255.1Q445.3 253.7 446.7 252.6Q448.0 251.4 449.9 250.8Q451.8 250.1 454.4 250.1L454.4 250.1Q460.3 250.1 464.0 254.3Q467.6 258.4 467.6 266.7L467.6 266.7Q467.6 272.2 465.9 275.9Q464.3 279.7 461.3 281.6Q458.3 283.5 454.3 283.5L454.3 283.5Q451.9 283.5 449.9 282.8Q448.0 282.2 446.7 281.1Q445.3 280.1 444.4 278.8L444.4 278.8L444 278.8Q444.1 279.8 444.2 281.4Q444.4 282.9 444.4 284.1L444.4 284.1L444.4 297.3ZM453.5 279.1L453.5 279.1Q456.4 279.1 458.3 277.5Q460.2 275.9 461.1 273.1Q462.1 270.3 462.1 266.7L462.1 266.7Q462.1 261.2 460.0 257.9Q457.9 254.6 453.4 254.6L453.4 254.6Q450.2 254.6 448.2 255.8Q446.2 257.0 445.3 259.5Q444.4 261.9 444.4 265.7L444.4 265.7L444.4 266.7Q444.4 270.7 445.2 273.5Q446.0 276.2 448.1 277.7Q450.1 279.1 453.5 279.1ZM483.4 283.5L483.4 283.5Q480.1 283.5 477.8 282.4Q475.5 281.3 474.3 279.2Q473.2 277.1 473.2 274.2L473.2 274.2Q473.2 269.2 476.9 266.5Q480.7 263.8 488.3 263.6L488.3 263.6L493.8 263.4L493.8 261.5Q493.8 257.9 492.1 256.2Q490.4 254.5 486.7 254.5L486.7 254.5Q484.4 254.5 482.1 255.1Q479.8 255.6 477.2 256.8L477.2 256.8L475.4 252.6Q478.4 251.3 481.2 250.7Q483.9 250.1 486.7 250.1L486.7 250.1Q492.8 250.1 495.9 252.8Q499.0 255.5 499.0 260.9L499.0 260.9L499.0 282.9L495.1 282.9L494.1 278.3L493.9 278.3Q492.4 280.1 490.9 281.2Q489.3 282.4 487.5 282.9Q485.6 283.5 483.4 283.5ZM484.7 279.2L484.7 279.2Q488.5 279.2 491.1 277.0Q493.7 274.7 493.7 270.0L493.7 270.0L493.7 267.3L489.0 267.5Q483.6 267.7 481.1 269.3Q478.6 270.8 478.6 273.9L478.6 273.9Q478.6 276.5 480.2 277.9Q481.7 279.2 484.7 279.2ZM521.9 282.9L508.9 282.9L508.9 250.7L521.8 250.7Q525.8 250.7 528.5 251.6Q531.2 252.6 532.6 254.4Q533.9 256.2 533.9 258.8L533.9 258.8Q533.9 261.6 532.3 263.4Q530.7 265.1 527.5 265.8L527.5 265.8L527.5 266.0Q531.2 266.5 533.1 268.5Q535.0 270.5 535.0 273.6L535.0 273.6Q535.0 276.2 533.6 278.3Q532.3 280.4 529.4 281.6Q526.6 282.9 521.9 282.9L521.9 282.9ZM514.2 268.2L514.2 278.6L521.3 278.6Q525.5 278.6 527.5 277.3Q529.4 276.1 529.4 273.5L529.4 273.5Q529.4 270.8 527.4 269.5Q525.4 268.2 521.2 268.2L521.2 268.2L514.2 268.2ZM514.2 255.0L514.2 264.0L520.6 264.0Q524.7 264.0 526.6 262.9Q528.5 261.8 528.5 259.5L528.5 259.5Q528.5 257.2 526.8 256.1Q525.1 255.0 521.5 255.0L521.5 255.0L514.2 255.0ZM555.4 283.5L555.4 283.5Q552.2 283.5 549.5 282.4Q546.8 281.3 544.8 279.1Q542.8 276.9 541.7 273.8Q540.5 270.8 540.5 266.7L540.5 266.7Q540.5 261.4 542.4 257.7Q544.2 254.0 547.6 252.1Q550.9 250.1 555.5 250.1L555.5 250.1Q559.9 250.1 563.3 252.1Q566.6 254.0 568.5 257.7Q570.4 261.5 570.4 266.8L570.4 266.8Q570.4 270.8 569.4 273.9Q568.3 277.0 566.3 279.1Q564.4 281.3 561.6 282.4Q558.8 283.5 555.4 283.5ZM555.5 279.1L555.5 279.1Q560.3 279.1 562.6 275.8Q564.8 272.4 564.8 266.8L564.8 266.8Q564.8 261.0 562.6 257.8Q560.3 254.5 555.4 254.5L555.4 254.5Q550.6 254.5 548.3 257.7Q546.1 261.0 546.1 266.7L546.1 266.7Q546.1 272.4 548.4 275.8Q550.6 279.1 555.5 279.1ZM583.7 282.9L578.4 282.9L578.4 250.7L604.6 250.7L604.6 282.9L599.3 282.9L599.3 255.2L583.7 255.2L583.7 282.9ZM621.3 282.9L614.8 282.9L614.8 250.7L620.0 250.7L620.0 270.3Q620.0 271.1 619.9 272.4Q619.9 273.8 619.8 275.2Q619.7 276.5 619.6 277.4L619.6 277.4L619.7 277.4L635.3 250.7L641.8 250.7L641.8 282.9L636.6 282.9L636.6 263.9Q636.6 263.0 636.6 261.5Q636.7 260.0 636.7 258.6Q636.8 257.2 636.8 256.4L636.8 256.4L636.8 256.4L621.3 282.9ZM665.1 283.5L665.1 283.5Q657.9 283.5 653.9 279.3Q649.8 275.1 649.8 267.1L649.8 267.1Q649.8 261.8 651.7 258.0Q653.5 254.2 657.0 252.2Q660.4 250.1 665.3 250.1L665.3 250.1Q667.6 250.1 670.0 250.6Q672.3 251.1 674.0 252.0L674.0 252.0L672.4 256.2Q670.6 255.3 668.9 254.9Q667.3 254.6 665.3 254.6L665.3 254.6Q660.4 254.6 657.8 257.8Q655.3 261.0 655.3 267.0L655.3 267.0Q655.3 273.0 657.8 276.0Q660.4 279.0 665.6 279.0L665.6 279.0Q667.4 279.0 669.4 278.7Q671.4 278.3 673.3 277.6L673.3 277.6L673.3 282.0Q671.8 282.7 669.6 283.1Q667.4 283.5 665.1 283.5ZM689.4 283.5L689.4 283.5Q686.1 283.5 683.8 282.4Q681.5 281.3 680.4 279.2Q679.2 277.1 679.2 274.2L679.2 274.2Q679.2 269.2 683.0 266.5Q686.8 263.8 694.4 263.6L694.4 263.6L699.8 263.4L699.8 261.5Q699.8 257.9 698.1 256.2Q696.4 254.5 692.7 254.5L692.7 254.5Q690.5 254.5 688.1 255.1Q685.8 255.6 683.2 256.8L683.2 256.8L681.5 252.6Q684.5 251.3 687.2 250.7Q689.9 250.1 692.8 250.1L692.8 250.1Q698.9 250.1 701.9 252.8Q705.0 255.5 705.0 260.9L705.0 260.9L705.0 282.9L701.2 282.9L700.1 278.3L699.9 278.3Q698.5 280.1 696.9 281.2Q695.3 282.4 693.5 282.9Q691.7 283.5 689.4 283.5ZM690.7 279.2L690.7 279.2Q694.6 279.2 697.2 277.0Q699.8 274.7 699.8 270.0L699.8 270.0L699.8 267.3L695.0 267.5Q689.6 267.7 687.2 269.3Q684.7 270.8 684.7 273.9L684.7 273.9Q684.7 276.5 686.2 277.9Q687.8 279.2 690.7 279.2ZM726.4 282.9L721.1 282.9L721.1 255.2L710.8 255.2L710.8 250.7L736.9 250.7L736.9 255.2L726.4 255.2L726.4 282.9ZM755.5 283.5L755.5 283.5Q752.3 283.5 749.6 282.4Q746.9 281.3 744.9 279.1Q742.9 276.9 741.8 273.8Q740.6 270.8 740.6 266.7L740.6 266.7Q740.6 261.4 742.5 257.7Q744.3 254.0 747.7 252.1Q751.0 250.1 755.6 250.1L755.6 250.1Q760.0 250.1 763.4 252.1Q766.7 254.0 768.6 257.7Q770.5 261.5 770.5 266.8L770.5 266.8Q770.5 270.8 769.5 273.9Q768.4 277.0 766.4 279.1Q764.5 281.3 761.7 282.4Q758.9 283.5 755.5 283.5ZM755.6 279.1L755.6 279.1Q760.4 279.1 762.7 275.8Q764.9 272.4 764.9 266.8L764.9 266.8Q764.9 261.0 762.7 257.8Q760.4 254.5 755.5 254.5L755.5 254.5Q750.7 254.5 748.4 257.7Q746.2 261.0 746.2 266.7L746.2 266.7Q746.2 272.4 748.5 275.8Q750.7 279.1 755.6 279.1ZM783.8 297.3L778.5 297.3L778.5 250.7L782.8 250.7L783.5 255.1L783.8 255.1Q784.7 253.7 786.1 252.6Q787.4 251.4 789.3 250.8Q791.2 250.1 793.8 250.1L793.8 250.1Q799.7 250.1 803.4 254.3Q807.0 258.4 807.0 266.7L807.0 266.7Q807.0 272.2 805.4 275.9Q803.7 279.7 800.7 281.6Q797.8 283.5 793.7 283.5L793.7 283.5Q791.3 283.5 789.4 282.8Q787.4 282.2 786.1 281.1Q784.7 280.1 783.8 278.8L783.8 278.8L783.4 278.8Q783.5 279.8 783.7 281.4Q783.8 282.9 783.8 284.1L783.8 284.1L783.8 297.3ZM793.0 279.1L793.0 279.1Q795.8 279.1 797.7 277.5Q799.6 275.9 800.6 273.1Q801.5 270.3 801.5 266.7L801.5 266.7Q801.5 261.2 799.4 257.9Q797.3 254.6 792.8 254.6L792.8 254.6Q789.6 254.6 787.6 255.8Q785.6 257.0 784.7 259.5Q783.8 261.9 783.8 265.7L783.8 265.7L783.8 266.7Q783.8 270.7 784.6 273.5Q785.5 276.2 787.5 277.7Q789.5 279.1 793.0 279.1Z "/><mask id="satori_om-id-1"><rect x="213" y="310" width="774" height="90" fill="#fff"/></mask><mask id="satori_om-id-1-0"><rect x="322" y="310" width="556" height="45" fill="#fff"/></mask><path fill="#fff" d="M328.8 343.7L325.4 343.7L325.4 318.7L328.5 318.7L328.5 332.4Q328.5 333.6 328.5 335.0Q328.5 336.4 328.4 337.6Q328.4 338.8 328.3 339.4L328.3 339.4L328.4 339.4L341.7 318.7L345.1 318.7L345.1 343.7L341.9 343.7L341.9 330.1Q341.9 329.2 341.9 328.1Q342.0 326.9 342.0 325.9Q342.1 324.9 342.1 324.1Q342.2 323.3 342.2 322.9L342.2 322.9L342.1 322.9L328.8 343.7ZM359.1 344.0L359.1 344.0Q354.9 344.0 352.5 341.6Q350.1 339.1 350.1 334.5L350.1 334.5Q350.1 331.4 351.2 329.2Q352.3 326.9 354.3 325.8Q356.3 324.6 359.2 324.6L359.2 324.6Q360.5 324.6 361.9 324.8Q363.3 325.1 364.3 325.7L364.3 325.7L363.3 328.1Q362.3 327.6 361.3 327.4Q360.4 327.2 359.2 327.2L359.2 327.2Q356.3 327.2 354.8 329.0Q353.3 330.9 353.3 334.4L353.3 334.4Q353.3 337.9 354.8 339.7Q356.3 341.4 359.4 341.4L359.4 341.4Q360.4 341.4 361.6 341.2Q362.7 341.0 363.8 340.6L363.8 340.6L363.8 343.2Q362.9 343.6 361.7 343.8Q360.4 344.0 359.1 344.0ZM371.8 343.7L368.7 343.7L368.7 324.9L383.9 324.9L383.9 343.7L380.9 343.7L380.9 327.5L371.8 327.5L371.8 343.7ZM393.0 352.1L389.9 352.1L389.9 324.9L392.4 324.9L392.8 327.5L393.0 327.5Q393.5 326.7 394.3 326.0Q395.1 325.3 396.2 325.0Q397.3 324.6 398.8 324.6L398.8 324.6Q402.3 324.6 404.4 327.0Q406.5 329.4 406.5 334.3L406.5 334.3Q406.5 337.4 405.6 339.6Q404.6 341.8 402.9 342.9Q401.1 344.0 398.8 344.0L398.8 344.0Q397.4 344.0 396.2 343.6Q395.1 343.3 394.3 342.6Q393.5 342.0 393.0 341.3L393.0 341.3L392.8 341.3Q392.8 341.9 392.9 342.8Q393.0 343.7 393.0 344.4L393.0 344.4L393.0 352.1ZM398.3 341.5L398.3 341.5Q400.0 341.5 401.1 340.5Q402.2 339.6 402.8 338.0Q403.3 336.3 403.3 334.2L403.3 334.2Q403.3 331.0 402.1 329.1Q400.9 327.2 398.3 327.2L398.3 327.2Q396.4 327.2 395.2 327.9Q394.0 328.6 393.5 330.0Q393.0 331.5 393.0 333.7L393.0 333.7L393.0 334.3Q393.0 336.6 393.5 338.2Q394.0 339.8 395.1 340.6Q396.3 341.5 398.3 341.5ZM415.7 344.0L415.7 344.0Q413.8 344.0 412.5 343.4Q411.1 342.8 410.5 341.5Q409.8 340.3 409.8 338.6L409.8 338.6Q409.8 335.7 412.0 334.1Q414.2 332.5 418.6 332.4L418.6 332.4L421.8 332.3L421.8 331.2Q421.8 329.1 420.8 328.1Q419.8 327.1 417.7 327.1L417.7 327.1Q416.4 327.1 415.0 327.5Q413.6 327.8 412.1 328.5L412.1 328.5L411.1 326.0Q412.9 325.3 414.5 324.9Q416.0 324.6 417.7 324.6L417.7 324.6Q421.3 324.6 423.0 326.1Q424.8 327.7 424.8 330.9L424.8 330.9L424.8 343.7L422.6 343.7L422.0 341.0L421.9 341.0Q421.0 342.0 420.1 342.7Q419.2 343.4 418.1 343.7Q417.1 344.0 415.7 344.0ZM416.5 341.5L416.5 341.5Q418.7 341.5 420.3 340.2Q421.8 338.9 421.8 336.2L421.8 336.2L421.8 334.6L419.0 334.7Q415.9 334.8 414.4 335.7Q413.0 336.6 413.0 338.5L413.0 338.5Q413.0 340.0 413.9 340.8Q414.8 341.5 416.5 341.5ZM438.2 343.7L430.6 343.7L430.6 324.9L438.2 324.9Q440.5 324.9 442.0 325.5Q443.6 326.0 444.4 327.1Q445.2 328.1 445.2 329.6L445.2 329.6Q445.2 331.3 444.3 332.3Q443.3 333.3 441.5 333.7L441.5 333.7L441.5 333.8Q443.6 334.1 444.7 335.3Q445.8 336.4 445.8 338.3L445.8 338.3Q445.8 339.8 445.1 341.0Q444.3 342.2 442.6 343.0Q440.9 343.7 438.2 343.7L438.2 343.7ZM433.7 335.1L433.7 341.2L437.8 341.2Q440.3 341.2 441.5 340.4Q442.6 339.7 442.6 338.2L442.6 338.2Q442.6 336.6 441.4 335.9Q440.3 335.1 437.8 335.1L437.8 335.1L433.7 335.1ZM433.7 327.4L433.7 332.7L437.4 332.7Q439.8 332.7 441.0 332.0Q442.1 331.4 442.1 330.0L442.1 330.0Q442.1 328.7 441.1 328.1Q440.1 327.4 438.0 327.4L438.0 327.4L433.7 327.4ZM449.3 343.9L449.3 343.9Q448.8 343.9 448.3 343.8Q447.9 343.7 447.4 343.6L447.4 343.6L447.4 340.9Q447.9 341.1 448.2 341.1Q448.5 341.1 448.8 341.1L448.8 341.1Q449.6 341.1 450.2 340.8Q450.7 340.4 451.1 339.5Q451.4 338.6 451.5 336.9L451.5 336.9Q451.6 335.7 451.7 334.5Q451.8 333.4 451.9 332.0Q452.0 330.7 452.1 329.0Q452.2 327.3 452.3 324.9L452.3 324.9L465.0 324.9L465.0 343.7L461.9 343.7L461.9 327.5L454.9 327.5Q454.8 329.1 454.8 330.4Q454.7 331.8 454.6 332.9Q454.5 334.1 454.5 335.1Q454.4 336.2 454.3 337.2L454.3 337.2Q453.9 340.8 452.8 342.4Q451.7 343.9 449.3 343.9ZM472.7 343.7L469.2 343.7L474.5 336.0Q472.7 335.6 471.6 334.4L471.6 334.4Q470.1 333.0 470.1 330.6L470.1 330.6Q470.1 327.9 471.9 326.4Q473.6 324.9 476.8 324.9L476.8 324.9L485.2 324.9L485.2 343.7L482.1 343.7L482.1 336.4L477.6 336.4L472.7 343.7ZM477.7 333.9L477.7 333.9L482.1 333.9L482.1 327.5L477.2 327.5Q475.2 327.5 474.2 328.3Q473.3 329.0 473.3 330.6L473.3 330.6Q473.3 332.2 474.4 333.1Q475.5 333.9 477.7 333.9ZM498.9 344.0L498.9 344.0Q496.2 344.0 494.1 342.9Q492.1 341.9 491.0 339.7Q489.8 337.6 489.8 334.4L489.8 334.4Q489.8 331.4 490.9 329.2Q491.9 326.9 493.8 325.8Q495.6 324.6 498.1 324.6L498.1 324.6Q500.5 324.6 502.3 325.6Q504.0 326.7 504.9 328.6Q505.9 330.5 505.9 333.0L505.9 333.0L505.9 335.0L493.0 335.0Q493.1 338.1 494.7 339.8Q496.2 341.4 499.0 341.4L499.0 341.4Q500.8 341.4 502.2 341.1Q503.5 340.7 505.0 340.1L505.0 340.1L505.0 342.8Q503.6 343.4 502.2 343.7Q500.8 344.0 498.9 344.0ZM493.1 332.4L493.1 332.4L502.6 332.4Q502.6 330.8 502.1 329.6Q501.6 328.5 500.6 327.8Q499.6 327.1 498.1 327.1L498.1 327.1Q495.9 327.1 494.6 328.5Q493.4 329.9 493.1 332.4ZM517.1 343.7L514.0 343.7L514.0 327.5L508.0 327.5L508.0 324.9L523.2 324.9L523.2 327.5L517.1 327.5L517.1 343.7Z M543.9 344.0L543.9 344.0Q542.0 344.0 540.4 343.4Q538.9 342.7 537.7 341.5Q536.5 340.2 535.9 338.4Q535.2 336.6 535.2 334.3L535.2 334.3Q535.2 331.1 536.3 329.0Q537.4 326.8 539.3 325.7Q541.3 324.6 544.0 324.6L544.0 324.6Q546.5 324.6 548.5 325.7Q550.4 326.8 551.5 329.0Q552.7 331.2 552.7 334.3L552.7 334.3Q552.7 336.6 552.0 338.4Q551.4 340.2 550.3 341.5Q549.1 342.7 547.5 343.4Q545.9 344.0 543.9 344.0ZM543.9 341.5L543.9 341.5Q546.7 341.5 548.1 339.5Q549.4 337.6 549.4 334.3L549.4 334.3Q549.4 330.9 548.1 329.0Q546.7 327.1 543.9 327.1L543.9 327.1Q541.1 327.1 539.8 329.0Q538.5 330.9 538.5 334.3L538.5 334.3Q538.5 337.6 539.8 339.5Q541.1 341.5 543.9 341.5ZM582.8 343.7L557.2 343.7L557.2 324.9L560.3 324.9L560.3 341.1L568.4 341.1L568.4 324.9L571.5 324.9L571.5 341.1L579.7 341.1L579.7 324.9L582.8 324.9L582.8 343.7ZM592.4 343.7L588.6 343.7L588.6 324.9L591.6 324.9L591.6 336.4Q591.6 336.8 591.6 337.6Q591.6 338.4 591.5 339.2Q591.5 340.0 591.4 340.5L591.4 340.5L591.5 340.5L600.6 324.9L604.4 324.9L604.4 343.7L601.3 343.7L601.3 332.6Q601.3 332.1 601.4 331.2Q601.4 330.3 601.4 329.5Q601.4 328.7 601.5 328.2L601.5 328.2L601.4 328.2L592.4 343.7ZM617.9 344.0L617.9 344.0Q615.1 344.0 613.2 342.7Q611.2 341.4 610.3 338.8Q609.3 336.1 609.2 332.2L609.2 332.2Q609.2 328.8 609.8 326.2Q610.4 323.6 611.5 321.9Q612.7 320.1 614.5 319.0Q616.3 318.0 618.8 317.6L618.8 317.6Q619.4 317.5 620.5 317.3Q621.5 317.1 622.7 317.0Q623.9 316.8 625.0 316.7L625.0 316.7L625.3 319.5Q624.2 319.6 623.0 319.8Q621.7 319.9 620.7 320.1Q619.6 320.2 619.0 320.3L619.0 320.3Q616.8 320.7 615.5 321.6Q614.1 322.5 613.3 324.1Q612.6 325.7 612.2 328.2L612.2 328.2L612.4 328.2Q613.0 327.3 613.9 326.7Q614.8 326.0 616.0 325.7Q617.2 325.3 618.6 325.3L618.6 325.3Q621.0 325.3 622.8 326.3Q624.6 327.4 625.6 329.4Q626.6 331.4 626.6 334.4L626.6 334.4Q626.6 337.3 625.5 339.5Q624.4 341.6 622.5 342.8Q620.5 344.0 617.9 344.0ZM617.9 341.5L617.9 341.5Q619.6 341.5 620.8 340.7Q622.0 339.8 622.7 338.2Q623.3 336.6 623.3 334.4L623.3 334.4Q623.3 331.1 622.0 329.5Q620.7 327.8 617.9 327.8L617.9 327.8Q615.3 327.8 613.9 329.4Q612.5 331.0 612.5 334.3L612.5 334.3Q612.5 336.6 613.2 338.2Q613.8 339.8 615.0 340.6Q616.3 341.5 617.9 341.5ZM646.6 343.7L643.1 343.7L637.4 335.4L634.3 335.4L634.3 343.7L631.2 343.7L631.2 324.9L634.3 324.9L634.3 332.8L637.4 332.8L642.9 324.9L646.1 324.9L639.9 333.9L646.6 343.7ZM653.6 343.7L649.8 343.7L649.8 324.9L652.9 324.9L652.9 336.4Q652.9 336.8 652.8 337.6Q652.8 338.4 652.7 339.2Q652.7 340.0 652.7 340.5L652.7 340.5L652.7 340.5L661.8 324.9L665.6 324.9L665.6 343.7L662.6 343.7L662.6 332.6Q662.6 332.1 662.6 331.2Q662.6 330.3 662.6 329.5Q662.7 328.7 662.7 328.2L662.7 328.2L662.7 328.2L653.6 343.7Z M685.2 343.7L681.4 343.7L681.4 324.9L684.4 324.9L684.4 336.4Q684.4 336.8 684.4 337.6Q684.4 338.4 684.3 339.2Q684.3 340.0 684.2 340.5L684.2 340.5L684.3 340.5L693.4 324.9L697.2 324.9L697.2 343.7L694.1 343.7L694.1 332.6Q694.1 332.1 694.2 331.2Q694.2 330.3 694.2 329.5Q694.2 328.7 694.3 328.2L694.3 328.2L694.2 328.2L685.2 343.7Z M720.3 344.0L720.3 344.0Q718.5 344.0 716.9 343.4Q715.3 342.7 714.1 341.5Q713.0 340.2 712.3 338.4Q711.7 336.6 711.7 334.3L711.7 334.3Q711.7 331.1 712.7 329.0Q713.8 326.8 715.8 325.7Q717.7 324.6 720.4 324.6L720.4 324.6Q723.0 324.6 724.9 325.7Q726.9 326.8 728.0 329.0Q729.1 331.2 729.1 334.3L729.1 334.3Q729.1 336.6 728.5 338.4Q727.9 340.2 726.7 341.5Q725.6 342.7 723.9 343.4Q722.3 344.0 720.3 344.0ZM720.4 341.5L720.4 341.5Q723.2 341.5 724.5 339.5Q725.9 337.6 725.9 334.3L725.9 334.3Q725.9 330.9 724.5 329.0Q723.2 327.1 720.4 327.1L720.4 327.1Q717.5 327.1 716.2 329.0Q714.9 330.9 714.9 334.3L714.9 334.3Q714.9 337.6 716.2 339.5Q717.6 341.5 720.4 341.5ZM736.8 343.7L733.8 343.7L733.8 324.9L749.0 324.9L749.0 343.7L745.9 343.7L745.9 327.5L736.8 327.5L736.8 343.7ZM762.7 344.0L762.7 344.0Q760.1 344.0 758.0 342.9Q756.0 341.9 754.8 339.7Q753.7 337.6 753.7 334.4L753.7 334.4Q753.7 331.4 754.7 329.2Q755.7 326.9 757.6 325.8Q759.5 324.6 762.0 324.6L762.0 324.6Q764.4 324.6 766.1 325.6Q767.9 326.7 768.8 328.6Q769.7 330.5 769.7 333.0L769.7 333.0L769.7 335.0L756.9 335.0Q757.0 338.1 758.5 339.8Q760.1 341.4 762.9 341.4L762.9 341.4Q764.6 341.4 766.0 341.1Q767.4 340.7 768.9 340.1L768.9 340.1L768.9 342.8Q767.4 343.4 766.0 343.7Q764.6 344.0 762.7 344.0ZM757.0 332.4L757.0 332.4L766.5 332.4Q766.5 330.8 766.0 329.6Q765.5 328.5 764.5 327.8Q763.5 327.1 761.9 327.1L761.9 327.1Q759.8 327.1 758.5 328.5Q757.2 329.9 757.0 332.4ZM788.9 343.7L785.8 343.7L785.8 336.2Q784.7 336.7 783.6 337.0L783.6 337.0Q782.1 337.3 780.5 337.3L780.5 337.3Q777.0 337.3 775.2 335.7Q773.4 334.1 773.4 331.0L773.4 331.0L773.4 324.9L776.5 324.9L776.5 330.7Q776.5 332.8 777.5 333.8Q778.6 334.8 780.9 334.8L780.9 334.8Q782.4 334.8 783.9 334.4L783.9 334.4Q784.9 334.2 785.8 333.7L785.8 333.7L785.8 324.9L788.9 324.9L788.9 343.7ZM799.4 344.0L799.4 344.0Q797.5 344.0 796.2 343.4Q794.8 342.8 794.2 341.5Q793.5 340.3 793.5 338.6L793.5 338.6Q793.5 335.7 795.7 334.1Q797.9 332.5 802.3 332.4L802.3 332.4L805.5 332.3L805.5 331.2Q805.5 329.1 804.5 328.1Q803.5 327.1 801.4 327.1L801.4 327.1Q800.1 327.1 798.7 327.5Q797.3 327.8 795.8 328.5L795.8 328.5L794.8 326.0Q796.6 325.3 798.1 324.9Q799.7 324.6 801.4 324.6L801.4 324.6Q805.0 324.6 806.7 326.1Q808.5 327.7 808.5 330.9L808.5 330.9L808.5 343.7L806.3 343.7L805.7 341.0L805.6 341.0Q804.7 342.0 803.8 342.7Q802.9 343.4 801.8 343.7Q800.8 344.0 799.4 344.0ZM800.2 341.5L800.2 341.5Q802.4 341.5 804.0 340.2Q805.5 338.9 805.5 336.2L805.5 336.2L805.5 334.6L802.7 334.7Q799.6 334.8 798.1 335.7Q796.7 336.6 796.7 338.5L796.7 338.5Q796.7 340.0 797.6 340.8Q798.5 341.5 800.2 341.5ZM821.0 343.7L817.9 343.7L817.9 327.5L811.9 327.5L811.9 324.9L827.1 324.9L827.1 327.5L821.0 327.5L821.0 343.7ZM845.9 343.7L842.4 343.7L836.8 335.4L833.7 335.4L833.7 343.7L830.6 343.7L830.6 324.9L833.7 324.9L833.7 332.8L836.8 332.8L842.3 324.9L845.5 324.9L839.3 333.9L845.9 343.7ZM853.0 343.7L849.2 343.7L849.2 324.9L852.2 324.9L852.2 336.4Q852.2 336.8 852.2 337.6Q852.2 338.4 852.1 339.2Q852.1 340.0 852.0 340.5L852.0 340.5L852.1 340.5L861.2 324.9L865.0 324.9L865.0 343.7L861.9 343.7L861.9 332.6Q861.9 332.1 862.0 331.2Q862.0 330.3 862.0 329.5Q862.0 328.7 862.1 328.2L862.1 328.2L862.0 328.2L853.0 343.7ZM871.8 340.2L875.0 340.2L874.8 341.5Q874.6 343.0 874.2 344.6Q873.7 346.2 873.3 347.6Q872.8 349.0 872.5 349.9L872.5 349.9L870.3 349.9Q870.5 349.1 870.7 347.8Q871.0 346.5 871.2 344.9Q871.5 343.3 871.7 341.6L871.7 341.6L871.8 340.2Z "/><mask id="satori_om-id-1-1"><rect x="237" y="355" width="726" height="45" fill="#fff"/></mask><path fill="#fff" d="M243.1 397.1L240.0 397.1L240.0 369.9L242.5 369.9L242.9 372.5L243.1 372.5Q243.6 371.7 244.4 371.0Q245.2 370.3 246.3 370.0Q247.4 369.6 248.9 369.6L248.9 369.6Q252.4 369.6 254.5 372.0Q256.6 374.4 256.6 379.3L256.6 379.3Q256.6 382.4 255.6 384.6Q254.7 386.8 252.9 387.9Q251.2 389.0 248.9 389.0L248.9 389.0Q247.4 389.0 246.3 388.6Q245.2 388.3 244.4 387.6Q243.6 387.0 243.1 386.3L243.1 386.3L242.8 386.3Q242.9 386.9 243.0 387.8Q243.1 388.7 243.1 389.4L243.1 389.4L243.1 397.1ZM248.4 386.5L248.4 386.5Q250.1 386.5 251.2 385.5Q252.3 384.6 252.8 383.0Q253.4 381.3 253.4 379.2L253.4 379.2Q253.4 376.0 252.2 374.1Q250.9 372.2 248.3 372.2L248.3 372.2Q246.4 372.2 245.3 372.9Q244.1 373.6 243.6 375.0Q243.1 376.5 243.1 378.7L243.1 378.7L243.1 379.3Q243.1 381.6 243.5 383.2Q244.0 384.8 245.2 385.6Q246.4 386.5 248.4 386.5ZM265.8 389.0L265.8 389.0Q263.9 389.0 262.5 388.4Q261.2 387.8 260.5 386.5Q259.9 385.3 259.9 383.6L259.9 383.6Q259.9 380.7 262.1 379.1Q264.3 377.5 268.7 377.4L268.7 377.4L271.9 377.3L271.9 376.2Q271.9 374.1 270.9 373.1Q269.9 372.1 267.7 372.1L267.7 372.1Q266.4 372.1 265.1 372.5Q263.7 372.8 262.2 373.5L262.2 373.5L261.2 371.0Q262.9 370.3 264.5 369.9Q266.1 369.6 267.8 369.6L267.8 369.6Q271.3 369.6 273.1 371.1Q274.9 372.7 274.9 375.9L274.9 375.9L274.9 388.7L272.7 388.7L272.1 386.0L271.9 386.0Q271.1 387.0 270.2 387.7Q269.3 388.4 268.2 388.7Q267.1 389.0 265.8 389.0ZM266.6 386.5L266.6 386.5Q268.8 386.5 270.3 385.2Q271.9 383.9 271.9 381.2L271.9 381.2L271.9 379.6L269.1 379.7Q265.9 379.8 264.5 380.7Q263.0 381.6 263.0 383.5L263.0 383.5Q263.0 385.0 263.9 385.8Q264.9 386.5 266.6 386.5ZM288.3 389.0L288.3 389.0Q284.1 389.0 281.8 386.6Q279.4 384.1 279.4 379.5L279.4 379.5Q279.4 376.4 280.5 374.2Q281.6 371.9 283.6 370.8Q285.6 369.6 288.4 369.6L288.4 369.6Q289.8 369.6 291.2 369.8Q292.5 370.1 293.6 370.7L293.6 370.7L292.6 373.1Q291.5 372.6 290.6 372.4Q289.6 372.2 288.4 372.2L288.4 372.2Q285.6 372.2 284.1 374.0Q282.6 375.9 282.6 379.4L282.6 379.4Q282.6 382.9 284.1 384.7Q285.6 386.4 288.7 386.4L288.7 386.4Q289.7 386.4 290.9 386.2Q292.0 386.0 293.1 385.6L293.1 385.6L293.1 388.2Q292.2 388.6 291.0 388.8Q289.7 389.0 288.3 389.0ZM305.6 389.0L305.6 389.0Q301.4 389.0 299.0 386.6Q296.7 384.1 296.7 379.5L296.7 379.5Q296.7 376.4 297.8 374.2Q298.8 371.9 300.9 370.8Q302.9 369.6 305.7 369.6L305.7 369.6Q307.1 369.6 308.4 369.8Q309.8 370.1 310.8 370.7L310.8 370.7L309.9 373.1Q308.8 372.6 307.8 372.4Q306.9 372.2 305.7 372.2L305.7 372.2Q302.9 372.2 301.4 374.0Q299.9 375.9 299.9 379.4L299.9 379.4Q299.9 382.9 301.4 384.7Q302.9 386.4 305.9 386.4L305.9 386.4Q307.0 386.4 308.1 386.2Q309.3 386.0 310.4 385.6L310.4 385.6L310.4 388.2Q309.5 388.6 308.2 388.8Q307.0 389.0 305.6 389.0ZM321.9 388.7L318.8 388.7L318.8 372.5L312.8 372.5L312.8 369.9L328.0 369.9L328.0 372.5L321.9 372.5L321.9 388.7ZM336.0 389.0L336.0 389.0Q334.1 389.0 332.8 388.4Q331.5 387.8 330.8 386.5Q330.1 385.3 330.1 383.6L330.1 383.6Q330.1 380.7 332.3 379.1Q334.5 377.5 339.0 377.4L339.0 377.4L342.1 377.3L342.1 376.2Q342.1 374.1 341.1 373.1Q340.1 372.1 338.0 372.1L338.0 372.1Q336.7 372.1 335.3 372.5Q333.9 372.8 332.4 373.5L332.4 373.5L331.4 371.0Q333.2 370.3 334.8 369.9Q336.4 369.6 338.0 369.6L338.0 369.6Q341.6 369.6 343.4 371.1Q345.1 372.7 345.1 375.9L345.1 375.9L345.1 388.7L342.9 388.7L342.3 386.0L342.2 386.0Q341.3 387.0 340.4 387.7Q339.5 388.4 338.4 388.7Q337.4 389.0 336.0 389.0ZM336.8 386.5L336.8 386.5Q339.1 386.5 340.6 385.2Q342.1 383.9 342.1 381.2L342.1 381.2L342.1 379.6L339.3 379.7Q336.2 379.8 334.7 380.7Q333.3 381.6 333.3 383.5L333.3 383.5Q333.3 385.0 334.2 385.8Q335.1 386.5 336.8 386.5ZM358.5 388.7L351.0 388.7L351.0 369.9L358.5 369.9Q360.8 369.9 362.4 370.5Q363.9 371.0 364.7 372.1Q365.6 373.1 365.6 374.6L365.6 374.6Q365.6 376.3 364.6 377.3Q363.7 378.3 361.8 378.7L361.8 378.7L361.8 378.8Q363.9 379.1 365.0 380.3Q366.1 381.4 366.1 383.3L366.1 383.3Q366.1 384.8 365.4 386.0Q364.6 387.2 362.9 388.0Q361.2 388.7 358.5 388.7L358.5 388.7ZM354.0 380.1L354.0 386.2L358.2 386.2Q360.6 386.2 361.8 385.4Q362.9 384.7 362.9 383.2L362.9 383.2Q362.9 381.6 361.8 380.9Q360.6 380.1 358.1 380.1L358.1 380.1L354.0 380.1ZM354.0 372.4L354.0 377.7L357.7 377.7Q360.2 377.7 361.3 377.0Q362.4 376.4 362.4 375.0L362.4 375.0Q362.4 373.7 361.4 373.1Q360.4 372.4 358.3 372.4L358.3 372.4L354.0 372.4ZM369.6 388.9L369.6 388.9Q369.1 388.9 368.6 388.8Q368.2 388.7 367.7 388.6L367.7 388.6L367.7 385.9Q368.2 386.1 368.5 386.1Q368.8 386.1 369.1 386.1L369.1 386.1Q369.9 386.1 370.5 385.8Q371.0 385.4 371.4 384.5Q371.7 383.6 371.9 381.9L371.9 381.9Q372.0 380.7 372.0 379.5Q372.1 378.4 372.2 377.0Q372.3 375.7 372.4 374.0Q372.5 372.3 372.6 369.9L372.6 369.9L385.3 369.9L385.3 388.7L382.2 388.7L382.2 372.5L375.2 372.5Q375.1 374.1 375.1 375.4Q375.0 376.8 374.9 377.9Q374.9 379.1 374.8 380.1Q374.7 381.2 374.6 382.2L374.6 382.2Q374.3 385.8 373.1 387.4Q372.0 388.9 369.6 388.9ZM393.0 388.7L389.5 388.7L394.8 381.0Q393.0 380.6 391.9 379.4L391.9 379.4Q390.4 378.0 390.4 375.6L390.4 375.6Q390.4 372.9 392.2 371.4Q393.9 369.9 397.1 369.9L397.1 369.9L405.5 369.9L405.5 388.7L402.4 388.7L402.4 381.4L398.0 381.4L393.0 388.7ZM398.1 378.9L398.1 378.9L402.4 378.9L402.4 372.5L397.5 372.5Q395.5 372.5 394.6 373.3Q393.6 374.0 393.6 375.6L393.6 375.6Q393.6 377.2 394.7 378.1Q395.8 378.9 398.1 378.9ZM419.2 389.0L419.2 389.0Q416.5 389.0 414.5 387.9Q412.4 386.9 411.3 384.7Q410.1 382.6 410.1 379.4L410.1 379.4Q410.1 376.4 411.2 374.2Q412.2 371.9 414.1 370.8Q416.0 369.6 418.4 369.6L418.4 369.6Q420.9 369.6 422.6 370.6Q424.3 371.7 425.2 373.6Q426.2 375.5 426.2 378.0L426.2 378.0L426.2 380.0L413.4 380.0Q413.5 383.1 415.0 384.8Q416.5 386.4 419.3 386.4L419.3 386.4Q421.1 386.4 422.5 386.1Q423.9 385.7 425.3 385.1L425.3 385.1L425.3 387.8Q423.9 388.4 422.5 388.7Q421.1 389.0 419.2 389.0ZM413.4 377.4L413.4 377.4L422.9 377.4Q422.9 375.8 422.4 374.6Q421.9 373.5 420.9 372.8Q419.9 372.1 418.4 372.1L418.4 372.1Q416.2 372.1 415.0 373.5Q413.7 374.9 413.4 377.4ZM437.4 388.7L434.3 388.7L434.3 372.5L428.3 372.5L428.3 369.9L443.5 369.9L443.5 372.5L437.4 372.5L437.4 388.7Z M461.3 389.0L461.3 389.0Q459.5 389.0 457.9 388.7Q456.3 388.5 455.1 388.0L455.1 388.0L455.1 385.3Q456.6 385.9 458.1 386.2Q459.7 386.5 461.2 386.5L461.2 386.5Q463.7 386.5 464.9 385.7Q466.1 384.9 466.1 383.3L466.1 383.3Q466.1 381.7 464.8 380.9Q463.6 380.1 460.9 380.1L460.9 380.1L457.8 380.1L457.8 377.7L460.9 377.7Q463.2 377.7 464.4 376.9Q465.6 376.2 465.6 374.8L465.6 374.8Q465.6 373.5 464.6 372.8Q463.6 372.1 461.4 372.1L461.4 372.1Q460.2 372.1 459.0 372.4Q457.8 372.6 456.2 373.3L456.2 373.3L455.3 370.8Q456.6 370.2 458.2 369.9Q459.9 369.6 461.6 369.6L461.6 369.6Q464.9 369.6 466.8 370.9Q468.7 372.2 468.7 374.5L468.7 374.5Q468.7 376.1 467.7 377.2Q466.8 378.3 464.9 378.7L464.9 378.7L464.9 378.8Q467.1 379.3 468.2 380.5Q469.3 381.7 469.3 383.5L469.3 383.5Q469.3 386.1 467.2 387.6Q465.2 389.0 461.3 389.0ZM478.5 389.0L478.5 389.0Q476.5 389.0 475.2 388.4Q473.9 387.8 473.2 386.5Q472.5 385.3 472.5 383.6L472.5 383.6Q472.5 380.7 474.7 379.1Q476.9 377.5 481.4 377.4L481.4 377.4L484.6 377.3L484.6 376.2Q484.6 374.1 483.6 373.1Q482.6 372.1 480.4 372.1L480.4 372.1Q479.1 372.1 477.7 372.5Q476.4 372.8 474.9 373.5L474.9 373.5L473.9 371.0Q475.6 370.3 477.2 369.9Q478.8 369.6 480.4 369.6L480.4 369.6Q484.0 369.6 485.8 371.1Q487.6 372.7 487.6 375.9L487.6 375.9L487.6 388.7L485.3 388.7L484.7 386.0L484.6 386.0Q483.8 387.0 482.8 387.7Q481.9 388.4 480.9 388.7Q479.8 389.0 478.5 389.0ZM479.2 386.5L479.2 386.5Q481.5 386.5 483.0 385.2Q484.5 383.9 484.5 381.2L484.5 381.2L484.5 379.6L481.8 379.7Q478.6 379.8 477.2 380.7Q475.7 381.6 475.7 383.5L475.7 383.5Q475.7 385.0 476.6 385.8Q477.5 386.5 479.2 386.5ZM496.5 388.7L493.4 388.7L493.4 369.9L508.6 369.9L508.6 388.7L505.6 388.7L505.6 372.5L496.5 372.5L496.5 388.7ZM516.4 388.7L512.8 388.7L518.2 381.0Q516.3 380.6 515.2 379.4L515.2 379.4Q513.8 378.0 513.8 375.6L513.8 375.6Q513.8 372.9 515.5 371.4Q517.3 369.9 520.4 369.9L520.4 369.9L528.9 369.9L528.9 388.7L525.8 388.7L525.8 381.4L521.3 381.4L516.4 388.7ZM521.4 378.9L521.4 378.9L525.8 378.9L525.8 372.5L520.8 372.5Q518.9 372.5 517.9 373.3Q516.9 374.0 517.0 375.6L517.0 375.6Q516.9 377.2 518.1 378.1Q519.2 378.9 521.4 378.9ZM541.4 388.7L538.4 388.7L538.4 372.5L532.3 372.5L532.3 369.9L547.6 369.9L547.6 372.5L541.4 372.5L541.4 388.7ZM557.7 388.6L551.1 388.6L551.1 369.9L554.1 369.9L554.1 376.7L557.7 376.7Q561.6 376.7 563.5 378.2Q565.5 379.6 565.5 382.5L565.5 382.5Q565.5 385.5 563.5 387.1Q561.5 388.6 557.7 388.6L557.7 388.6ZM554.1 379.3L554.1 386.1L557.7 386.1Q560.1 386.1 561.2 385.2Q562.3 384.3 562.3 382.6L562.3 382.6Q562.3 380.9 561.2 380.1Q560.1 379.3 557.7 379.3L557.7 379.3L554.1 379.3ZM571.7 388.6L568.6 388.6L568.6 369.9L571.7 369.9L571.7 388.6ZM585.4 389.0L585.4 389.0Q582.7 389.0 580.7 387.9Q578.6 386.9 577.5 384.7Q576.3 382.6 576.3 379.4L576.3 379.4Q576.3 376.4 577.4 374.2Q578.4 371.9 580.3 370.8Q582.1 369.6 584.6 369.6L584.6 369.6Q587.0 369.6 588.8 370.6Q590.5 371.7 591.4 373.6Q592.4 375.5 592.4 378.0L592.4 378.0L592.4 380.0L579.6 380.0Q579.7 383.1 581.2 384.8Q582.7 386.4 585.5 386.4L585.5 386.4Q587.3 386.4 588.7 386.1Q590.1 385.7 591.5 385.1L591.5 385.1L591.5 387.8Q590.1 388.4 588.7 388.7Q587.3 389.0 585.4 389.0ZM579.6 377.4L579.6 377.4L589.1 377.4Q589.1 375.8 588.6 374.6Q588.1 373.5 587.1 372.8Q586.1 372.1 584.6 372.1L584.6 372.1Q582.4 372.1 581.1 373.5Q579.9 374.9 579.6 377.4Z M610.6 388.7L606.8 388.7L606.8 369.9L609.8 369.9L609.8 381.4Q609.8 381.8 609.8 382.6Q609.7 383.4 609.7 384.2Q609.6 385.0 609.6 385.5L609.6 385.5L609.6 385.5L618.7 369.9L622.5 369.9L622.5 388.7L619.5 388.7L619.5 377.6Q619.5 377.1 619.5 376.2Q619.5 375.3 619.6 374.5Q619.6 373.7 619.6 373.2L619.6 373.2L619.6 373.2L610.6 388.7Z M642.7 389.0L642.7 389.0Q641.0 389.0 639.4 388.7Q637.8 388.5 636.6 388.0L636.6 388.0L636.6 385.3Q638.1 385.9 639.6 386.2Q641.2 386.5 642.7 386.5L642.7 386.5Q645.2 386.5 646.4 385.7Q647.6 384.9 647.6 383.3L647.6 383.3Q647.6 381.7 646.3 380.9Q645.1 380.1 642.4 380.1L642.4 380.1L639.3 380.1L639.3 377.7L642.4 377.7Q644.7 377.7 645.9 376.9Q647.1 376.2 647.1 374.8L647.1 374.8Q647.1 373.5 646.1 372.8Q645.1 372.1 642.9 372.1L642.9 372.1Q641.7 372.1 640.5 372.4Q639.3 372.6 637.7 373.3L637.7 373.3L636.8 370.8Q638.1 370.2 639.7 369.9Q641.3 369.6 643.1 369.6L643.1 369.6Q646.4 369.6 648.3 370.9Q650.2 372.2 650.2 374.5L650.2 374.5Q650.2 376.1 649.2 377.2Q648.3 378.3 646.4 378.7L646.4 378.7L646.4 378.8Q648.6 379.3 649.7 380.5Q650.8 381.7 650.8 383.5L650.8 383.5Q650.8 386.1 648.7 387.6Q646.7 389.0 642.7 389.0ZM658.5 388.7L655.4 388.7L655.4 369.9L658.5 369.9L658.5 377.7L667.9 377.7L667.9 369.9L671.0 369.9L671.0 388.7L667.9 388.7L667.9 380.3L658.5 380.3L658.5 388.7ZM681.5 389.0L681.5 389.0Q679.5 389.0 678.2 388.4Q676.9 387.8 676.2 386.5Q675.5 385.3 675.5 383.6L675.5 383.6Q675.5 380.7 677.7 379.1Q679.9 377.5 684.4 377.4L684.4 377.4L687.5 377.3L687.5 376.2Q687.5 374.1 686.5 373.1Q685.6 372.1 683.4 372.1L683.4 372.1Q682.1 372.1 680.7 372.5Q679.4 372.8 677.9 373.5L677.9 373.5L676.8 371.0Q678.6 370.3 680.2 369.9Q681.8 369.6 683.4 369.6L683.4 369.6Q687.0 369.6 688.8 371.1Q690.6 372.7 690.6 375.9L690.6 375.9L690.6 388.7L688.3 388.7L687.7 386.0L687.6 386.0Q686.7 387.0 685.8 387.7Q684.9 388.4 683.9 388.7Q682.8 389.0 681.5 389.0ZM682.2 386.5L682.2 386.5Q684.5 386.5 686.0 385.2Q687.5 383.9 687.5 381.2L687.5 381.2L687.5 379.6L684.7 379.7Q681.6 379.8 680.1 380.7Q678.7 381.6 678.7 383.5L678.7 383.5Q678.7 385.0 679.6 385.8Q680.5 386.5 682.2 386.5ZM711.7 388.7L708.2 388.7L702.6 380.4L699.4 380.4L699.4 388.7L696.4 388.7L696.4 369.9L699.4 369.9L699.4 377.8L702.6 377.8L708.0 369.9L711.2 369.9L705.0 378.9L711.7 388.7ZM718.8 388.7L715.0 388.7L715.0 369.9L718.0 369.9L718.0 381.4Q718.0 381.8 718.0 382.6Q717.9 383.4 717.9 384.2Q717.8 385.0 717.8 385.5L717.8 385.5L717.8 385.5L726.9 369.9L730.7 369.9L730.7 388.7L727.7 388.7L727.7 377.6Q727.7 377.1 727.7 376.2Q727.7 375.3 727.8 374.5Q727.8 373.7 727.8 373.2L727.8 373.2L727.8 373.2L718.8 388.7Z M749.6 388.7L746.5 388.7L746.5 369.9L761.8 369.9L761.8 388.7L758.7 388.7L758.7 372.5L749.6 372.5L749.6 388.7ZM770.8 397.1L767.7 397.1L767.7 369.9L770.3 369.9L770.7 372.5L770.8 372.5Q771.4 371.7 772.2 371.0Q773.0 370.3 774.1 370.0Q775.2 369.6 776.7 369.6L776.7 369.6Q780.1 369.6 782.2 372.0Q784.4 374.4 784.4 379.3L784.4 379.3Q784.4 382.4 783.4 384.6Q782.4 386.8 780.7 387.9Q779.0 389.0 776.6 389.0L776.6 389.0Q775.2 389.0 774.1 388.6Q773.0 388.3 772.2 387.6Q771.4 387.0 770.8 386.3L770.8 386.3L770.6 386.3Q770.7 386.9 770.8 387.8Q770.8 388.7 770.8 389.4L770.8 389.4L770.8 397.1ZM776.2 386.5L776.2 386.5Q777.9 386.5 779.0 385.5Q780.1 384.6 780.6 383.0Q781.1 381.3 781.1 379.2L781.1 379.2Q781.1 376.0 779.9 374.1Q778.7 372.2 776.1 372.2L776.1 372.2Q774.2 372.2 773.0 372.9Q771.9 373.6 771.3 375.0Q770.8 376.5 770.8 378.7L770.8 378.7L770.8 379.3Q770.8 381.6 771.3 383.2Q771.8 384.8 773.0 385.6Q774.1 386.5 776.2 386.5ZM796.8 389.0L796.8 389.0Q794.1 389.0 792.0 387.9Q790.0 386.9 788.9 384.7Q787.7 382.6 787.7 379.4L787.7 379.4Q787.7 376.4 788.8 374.2Q789.8 371.9 791.7 370.8Q793.5 369.6 796.0 369.6L796.0 369.6Q798.4 369.6 800.2 370.6Q801.9 371.7 802.8 373.6Q803.8 375.5 803.8 378.0L803.8 378.0L803.8 380.0L790.9 380.0Q791.1 383.1 792.6 384.8Q794.1 386.4 796.9 386.4L796.9 386.4Q798.7 386.4 800.1 386.1Q801.4 385.7 802.9 385.1L802.9 385.1L802.9 387.8Q801.5 388.4 800.1 388.7Q798.7 389.0 796.8 389.0ZM791.0 377.4L791.0 377.4L800.5 377.4Q800.5 375.8 800.0 374.6Q799.5 373.5 798.5 372.8Q797.5 372.1 796.0 372.1L796.0 372.1Q793.8 372.1 792.5 373.5Q791.3 374.9 791.0 377.4ZM811.4 388.7L808.3 388.7L808.3 369.9L823.6 369.9L823.6 388.7L820.5 388.7L820.5 372.5L811.4 372.5L811.4 388.7ZM833.3 388.7L829.5 388.7L829.5 369.9L832.6 369.9L832.6 381.4Q832.6 381.8 832.5 382.6Q832.5 383.4 832.4 384.2Q832.4 385.0 832.4 385.5L832.4 385.5L832.4 385.5L841.5 369.9L845.3 369.9L845.3 388.7L842.3 388.7L842.3 377.6Q842.3 377.1 842.3 376.2Q842.3 375.3 842.3 374.5Q842.4 373.7 842.4 373.2L842.4 373.2L842.4 373.2L833.3 388.7ZM854.3 388.7L851.3 388.7L851.3 369.9L854.3 369.9L854.3 377.7L863.7 377.7L863.7 369.9L866.8 369.9L866.8 388.7L863.7 388.7L863.7 380.3L854.3 380.3L854.3 388.7ZM877.3 389.0L877.3 389.0Q875.4 389.0 874.0 388.4Q872.7 387.8 872.0 386.5Q871.3 385.3 871.3 383.6L871.3 383.6Q871.3 380.7 873.5 379.1Q875.8 377.5 880.2 377.4L880.2 377.4L883.4 377.3L883.4 376.2Q883.4 374.1 882.4 373.1Q881.4 372.1 879.2 372.1L879.2 372.1Q877.9 372.1 876.6 372.5Q875.2 372.8 873.7 373.5L873.7 373.5L872.7 371.0Q874.4 370.3 876.0 369.9Q877.6 369.6 879.3 369.6L879.3 369.6Q882.8 369.6 884.6 371.1Q886.4 372.7 886.4 375.9L886.4 375.9L886.4 388.7L884.2 388.7L883.6 386.0L883.4 386.0Q882.6 387.0 881.7 387.7Q880.8 388.4 879.7 388.7Q878.6 389.0 877.3 389.0ZM878.1 386.5L878.1 386.5Q880.3 386.5 881.8 385.2Q883.3 383.9 883.3 381.2L883.3 381.2L883.3 379.6L880.6 379.7Q877.4 379.8 876.0 380.7Q874.5 381.6 874.5 383.5L874.5 383.5Q874.5 385.0 875.4 385.8Q876.3 386.5 878.1 386.5ZM895.3 388.7L892.2 388.7L892.2 369.9L895.3 369.9L895.3 377.7L904.7 377.7L904.7 369.9L907.7 369.9L907.7 388.7L904.7 388.7L904.7 380.3L895.3 380.3L895.3 388.7ZM917.5 388.7L913.7 388.7L913.7 369.9L916.7 369.9L916.7 381.4Q916.7 381.8 916.7 382.6Q916.7 383.4 916.6 384.2Q916.6 385.0 916.5 385.5L916.5 385.5L916.6 385.5L925.7 369.9L929.5 369.9L929.5 388.7L926.4 388.7L926.4 377.6Q926.4 377.1 926.4 376.2Q926.5 375.3 926.5 374.5Q926.5 373.7 926.6 373.2L926.6 373.2L926.5 373.2L917.5 388.7ZM937.2 388.7L933.7 388.7L939.0 381.0Q937.2 380.6 936.1 379.4L936.1 379.4Q934.6 378.0 934.6 375.6L934.6 375.6Q934.6 372.9 936.4 371.4Q938.1 369.9 941.3 369.9L941.3 369.9L949.7 369.9L949.7 388.7L946.6 388.7L946.6 381.4L942.1 381.4L937.2 388.7ZM942.3 378.9L942.3 378.9L946.6 378.9L946.6 372.5L941.7 372.5Q939.7 372.5 938.8 373.3Q937.8 374.0 937.8 375.6L937.8 375.6Q937.8 377.2 938.9 378.1Q940.0 378.9 942.3 378.9ZM957.5 388.9L957.5 388.9Q956.5 388.9 955.9 388.2Q955.2 387.6 955.2 386.6L955.2 386.6Q955.2 385.7 955.9 385.1Q956.5 384.4 957.5 384.4L957.5 384.4Q958.4 384.4 959.0 385.1Q959.7 385.7 959.7 386.6L959.7 386.6Q959.7 387.3 959.4 387.8Q959.1 388.3 958.6 388.6Q958.1 388.9 957.5 388.9Z "/></svg>