<svg width="800" height="400" viewBox="0 0 800 400" xmlns="http://www.w3.org/2000/svg"><mask id="satori_om-id"><rect x="0" y="0" width="800" height="400" fill="#fff"/></mask><rect x="0" y="0" width="800" height="400" fill="#30a46c"/><mask id="satori_om-id-0"><rect x="190" y="117" width="420" height="82" fill="#fff"/></mask><path fill="#fff" d="M201.2 176.7L195.8 176.7L195.8 133.8L228.2 133.8L228.2 176.7L222.8 176.7L222.8 138.6L201.2 138.6L201.2 176.7ZM244.4 191.1L239.1 191.1L239.1 144.5L243.4 144.5L244.1 148.9L244.4 148.9Q245.3 147.5 246.7 146.4Q248.0 145.2 249.9 144.6Q251.8 143.9 254.4 143.9L254.4 143.9Q260.3 143.9 263.9 148.1Q267.6 152.2 267.6 160.5L267.6 160.5Q267.6 166.0 265.9 169.8Q264.3 173.5 261.3 175.4Q258.3 177.3 254.3 177.3L254.3 177.3Q251.9 177.3 249.9 176.6Q248.0 176.0 246.7 174.9Q245.3 173.9 244.4 172.6L244.4 172.6L244 172.6Q244.1 173.6 244.2 175.2Q244.4 176.7 244.4 177.9L244.4 177.9L244.4 191.1ZM253.5 172.9L253.5 172.9Q256.4 172.9 258.3 171.3Q260.2 169.7 261.1 166.9Q262.1 164.1 262.1 160.5L262.1 160.5Q262.1 155.0 260.0 151.7Q257.9 148.4 253.4 148.4L253.4 148.4Q250.2 148.4 248.2 149.6Q246.2 150.8 245.3 153.3Q244.4 155.7 244.4 159.5L244.4 159.5L244.4 160.5Q244.4 164.5 245.2 167.3Q246.0 170.0 248.0 171.5Q250.1 172.9 253.5 172.9ZM283.4 177.3L283.4 177.3Q280.1 177.3 277.8 176.2Q275.5 175.1 274.3 173.0Q273.2 170.9 273.2 168.0L273.2 168.0Q273.2 163.0 276.9 160.3Q280.7 157.6 288.3 157.4L288.3 157.4L293.8 157.2L293.8 155.3Q293.8 151.7 292.1 150.0Q290.4 148.3 286.7 148.3L286.7 148.3Q284.4 148.3 282.1 148.9Q279.8 149.4 277.2 150.6L277.2 150.6L275.4 146.4Q278.4 145.1 281.2 144.5Q283.9 143.9 286.7 143.9L286.7 143.9Q292.8 143.9 295.9 146.6Q299.0 149.3 299.0 154.7L299.0 154.7L299.0 176.7L295.1 176.7L294.1 172.1L293.9 172.1Q292.4 173.9 290.9 175.0Q289.3 176.2 287.5 176.7Q285.6 177.3 283.4 177.3ZM284.7 173.0L284.7 173.0Q288.5 173.0 291.1 170.8Q293.7 168.5 293.7 163.8L293.7 163.8L293.7 161.1L289 161.3Q283.6 161.5 281.1 163.1Q278.6 164.6 278.6 167.7L278.6 167.7Q278.6 170.3 280.2 171.7Q281.7 173.0 284.7 173.0ZM321.9 176.7L308.9 176.7L308.9 144.5L321.8 144.5Q325.8 144.5 328.5 145.5Q331.2 146.4 332.6 148.2Q333.9 150.0 333.9 152.6L333.9 152.6Q333.9 155.4 332.3 157.2Q330.7 158.9 327.5 159.6L327.5 159.6L327.5 159.8Q331.2 160.3 333.1 162.3Q335.0 164.3 335.0 167.4L335.0 167.4Q335.0 170.0 333.6 172.1Q332.3 174.2 329.4 175.5Q326.6 176.7 321.9 176.7L321.9 176.7ZM314.2 162.0L314.2 172.4L321.3 172.4Q325.5 172.4 327.5 171.1Q329.4 169.9 329.4 167.3L329.4 167.3Q329.4 164.6 327.4 163.3Q325.4 162.0 321.2 162.0L321.2 162.0L314.2 162.0ZM314.2 148.8L314.2 157.8L320.6 157.8Q324.7 157.8 326.6 156.7Q328.5 155.6 328.5 153.3L328.5 153.3Q328.5 151.0 326.8 149.9Q325.1 148.8 321.5 148.8L321.5 148.8L314.2 148.8ZM355.4 177.3L355.4 177.3Q352.2 177.3 349.5 176.2Q346.8 175.1 344.8 172.9Q342.8 170.7 341.6 167.7Q340.5 164.6 340.5 160.5L340.5 160.5Q340.5 155.2 342.4 151.5Q344.2 147.8 347.6 145.9Q350.9 143.9 355.5 143.9L355.5 143.9Q359.9 143.9 363.2 145.9Q366.6 147.8 368.5 151.5Q370.4 155.3 370.4 160.6L370.4 160.6Q370.4 164.6 369.4 167.7Q368.3 170.8 366.3 172.9Q364.4 175.1 361.6 176.2Q358.8 177.3 355.4 177.3ZM355.5 172.9L355.5 172.9Q360.3 172.9 362.6 169.6Q364.8 166.2 364.8 160.6L364.8 160.6Q364.8 154.8 362.6 151.6Q360.3 148.3 355.4 148.3L355.4 148.3Q350.6 148.3 348.3 151.5Q346.1 154.8 346.1 160.5L346.1 160.5Q346.1 166.2 348.4 169.6Q350.6 172.9 355.5 172.9ZM383.7 176.7L378.4 176.7L378.4 144.5L404.6 144.5L404.6 176.7L399.3 176.7L399.3 149.0L383.7 149.0L383.7 176.7ZM421.3 176.7L414.8 176.7L414.8 144.5L420.0 144.5L420.0 164.1Q420.0 164.9 419.9 166.2Q419.9 167.6 419.8 169.0Q419.7 170.3 419.6 171.2L419.6 171.2L419.7 171.2L435.3 144.5L441.8 144.5L441.8 176.7L436.6 176.7L436.6 157.7Q436.6 156.8 436.6 155.3Q436.7 153.8 436.7 152.4Q436.8 151.0 436.8 150.2L436.8 150.2L436.8 150.2L421.3 176.7ZM465.1 177.3L465.1 177.3Q457.9 177.3 453.8 173.1Q449.8 168.9 449.8 160.9L449.8 160.9Q449.8 155.6 451.7 151.8Q453.5 148.0 457.0 146.0Q460.4 143.9 465.3 143.9L465.3 143.9Q467.6 143.9 470.0 144.4Q472.3 144.9 474.0 145.8L474.0 145.8L472.4 150.0Q470.6 149.1 468.9 148.8Q467.3 148.4 465.3 148.4L465.3 148.4Q460.4 148.4 457.8 151.6Q455.3 154.8 455.3 160.8L455.3 160.8Q455.3 166.8 457.8 169.8Q460.4 172.8 465.6 172.8L465.6 172.8Q467.4 172.8 469.4 172.5Q471.4 172.1 473.3 171.4L473.3 171.4L473.3 175.8Q471.8 176.5 469.6 176.9Q467.4 177.3 465.1 177.3ZM489.4 177.3L489.4 177.3Q486.1 177.3 483.8 176.2Q481.5 175.1 480.4 173.0Q479.2 170.9 479.2 168.0L479.2 168.0Q479.2 163.0 483.0 160.3Q486.8 157.6 494.4 157.4L494.4 157.4L499.8 157.2L499.8 155.3Q499.8 151.7 498.1 150.0Q496.4 148.3 492.7 148.3L492.7 148.3Q490.5 148.3 488.1 148.9Q485.8 149.4 483.2 150.6L483.2 150.6L481.5 146.4Q484.5 145.1 487.2 144.5Q489.9 143.9 492.8 143.9L492.8 143.9Q498.9 143.9 501.9 146.6Q505.0 149.3 505.0 154.7L505.0 154.7L505.0 176.7L501.2 176.7L500.1 172.1L499.9 172.1Q498.5 173.9 496.9 175.0Q495.3 176.2 493.5 176.7Q491.7 177.3 489.4 177.3ZM490.7 173.0L490.7 173.0Q494.6 173.0 497.2 170.8Q499.8 168.5 499.8 163.8L499.8 163.8L499.8 161.1L495.0 161.3Q489.6 161.5 487.1 163.1Q484.7 164.6 484.7 167.7L484.7 167.7Q484.7 170.3 486.2 171.7Q487.8 173.0 490.7 173.0ZM526.4 176.7L521.1 176.7L521.1 149.0L510.8 149.0L510.8 144.5L536.9 144.5L536.9 149.0L526.4 149.0L526.4 176.7ZM555.5 177.3L555.5 177.3Q552.3 177.3 549.6 176.2Q546.9 175.1 544.9 172.9Q542.9 170.7 541.8 167.7Q540.6 164.6 540.6 160.5L540.6 160.5Q540.6 155.2 542.5 151.5Q544.3 147.8 547.7 145.9Q551.0 143.9 555.6 143.9L555.6 143.9Q560.0 143.9 563.4 145.9Q566.7 147.8 568.6 151.5Q570.5 155.3 570.5 160.6L570.5 160.6Q570.5 164.6 569.5 167.7Q568.4 170.8 566.4 172.9Q564.5 175.1 561.7 176.2Q558.9 177.3 555.5 177.3ZM555.6 172.9L555.6 172.9Q560.4 172.9 562.7 169.6Q564.9 166.2 564.9 160.6L564.9 160.6Q564.9 154.8 562.7 151.6Q560.4 148.3 555.5 148.3L555.5 148.3Q550.7 148.3 548.4 151.5Q546.2 154.8 546.2 160.5L546.2 160.5Q546.2 166.2 548.5 169.6Q550.7 172.9 555.6 172.9ZM583.8 191.1L578.5 191.1L578.5 144.5L582.8 144.5L583.5 148.9L583.8 148.9Q584.7 147.5 586.1 146.4Q587.4 145.2 589.3 144.6Q591.2 143.9 593.8 143.9L593.8 143.9Q599.7 143.9 603.4 148.1Q607 152.2 607 160.5L607 160.5Q607 166.0 605.4 169.8Q603.7 173.5 600.7 175.4Q597.8 177.3 593.7 177.3L593.7 177.3Q591.3 177.3 589.4 176.6Q587.4 176.0 586.1 174.9Q584.7 173.9 583.8 172.6L583.8 172.6L583.4 172.6Q583.5 173.6 583.7 175.2Q583.8 176.7 583.8 177.9L583.8 177.9L583.8 191.1ZM593.0 172.9L593.0 172.9Q595.8 172.9 597.7 171.3Q599.6 169.7 600.5 166.9Q601.5 164.1 601.5 160.5L601.5 160.5Q601.5 155.0 599.4 151.7Q597.3 148.4 592.8 148.4L592.8 148.4Q589.6 148.4 587.6 149.6Q585.6 150.8 584.7 153.3Q583.8 155.7 583.8 159.5L583.8 159.5L583.8 160.5Q583.8 164.5 584.6 167.3Q585.5 170.0 587.5 171.5Q589.5 172.9 593.0 172.9Z "/><mask id="satori_om-id-1"><rect x="0" y="207" width="800" height="76" fill="#fff"/></mask><path fill="#fff" d="M23.8 234.9L21.1 234.9L21.1 214.9L23.6 214.9L23.6 225.8Q23.6 226.8 23.6 227.9Q23.5 229.1 23.5 230.0Q23.5 231.0 23.4 231.4L23.4 231.4L23.5 231.4L34.1 214.9L36.8 214.9L36.8 234.9L34.3 234.9L34.3 224.0Q34.3 223.2 34.3 222.3Q34.3 221.5 34.4 220.6Q34.4 219.8 34.5 219.2Q34.5 218.5 34.5 218.2L34.5 218.2L34.4 218.2L23.8 234.9ZM48.0 235.1L48.0 235.1Q44.6 235.1 42.8 233.2Q40.9 231.2 40.9 227.5L40.9 227.5Q40.9 225.0 41.7 223.2Q42.6 221.5 44.2 220.5Q45.8 219.6 48.1 219.6L48.1 219.6Q49.2 219.6 50.3 219.8Q51.4 220.0 52.2 220.5L52.2 220.5L51.4 222.4Q50.6 222.0 49.8 221.8Q49.0 221.6 48.1 221.6L48.1 221.6Q45.8 221.6 44.6 223.1Q43.4 224.6 43.4 227.5L43.4 227.5Q43.4 230.3 44.6 231.7Q45.8 233.1 48.3 233.1L48.3 233.1Q49.1 233.1 50.0 232.9Q50.9 232.7 51.8 232.4L51.8 232.4L51.8 234.5Q51.1 234.8 50.1 234.9Q49.1 235.1 48.0 235.1ZM58.2 234.9L55.7 234.9L55.7 219.8L67.9 219.8L67.9 234.9L65.5 234.9L65.5 221.9L58.2 221.9L58.2 234.9ZM75.1 241.6L72.7 241.6L72.7 219.8L74.7 219.8L75.0 221.9L75.1 221.9Q75.6 221.2 76.2 220.7Q76.8 220.2 77.7 219.9Q78.6 219.6 79.8 219.6L79.8 219.6Q82.6 219.6 84.3 221.5Q86.0 223.4 86.0 227.3L86.0 227.3Q86.0 229.9 85.2 231.6Q84.4 233.4 83.0 234.2Q81.7 235.1 79.8 235.1L79.8 235.1Q78.6 235.1 77.7 234.8Q76.8 234.5 76.2 234.0Q75.6 233.5 75.1 232.9L75.1 232.9L75.0 232.9Q75.0 233.4 75.1 234.2Q75.1 234.9 75.1 235.4L75.1 235.4L75.1 241.6ZM79.4 233.1L79.4 233.1Q80.8 233.1 81.6 232.3Q82.5 231.6 83.0 230.3Q83.4 229.0 83.4 227.3L83.4 227.3Q83.4 224.7 82.4 223.2Q81.4 221.6 79.4 221.6L79.4 221.6Q77.9 221.6 76.9 222.2Q76.0 222.8 75.6 223.9Q75.1 225.1 75.1 226.8L75.1 226.8L75.1 227.3Q75.1 229.2 75.5 230.5Q75.9 231.7 76.9 232.4Q77.8 233.1 79.4 233.1ZM93.3 235.1L93.3 235.1Q91.8 235.1 90.7 234.6Q89.7 234.1 89.1 233.1Q88.6 232.2 88.6 230.8L88.6 230.8Q88.6 228.5 90.3 227.2Q92.1 225.9 95.7 225.8L95.7 225.8L98.2 225.8L98.2 224.9Q98.2 223.2 97.4 222.4Q96.6 221.6 94.9 221.6L94.9 221.6Q93.8 221.6 92.8 221.9Q91.7 222.1 90.5 222.7L90.5 222.7L89.6 220.7Q91.0 220.1 92.3 219.8Q93.6 219.6 94.9 219.6L94.9 219.6Q97.8 219.6 99.2 220.8Q100.6 222.1 100.6 224.6L100.6 224.6L100.6 234.9L98.8 234.9L98.4 232.7L98.2 232.7Q97.6 233.5 96.8 234.1Q96.1 234.6 95.3 234.9Q94.4 235.1 93.3 235.1ZM94.0 233.1L94.0 233.1Q95.7 233.1 97.0 232.1Q98.2 231.0 98.2 228.8L98.2 228.8L98.2 227.6L96.0 227.7Q93.5 227.8 92.3 228.5Q91.1 229.2 91.1 230.7L91.1 230.7Q91.1 231.9 91.9 232.5Q92.6 233.1 94.0 233.1ZM111.3 234.9L105.3 234.9L105.3 219.8L111.3 219.8Q113.1 219.8 114.4 220.3Q115.7 220.7 116.3 221.6Q116.9 222.4 116.9 223.6L116.9 223.6Q116.9 224.9 116.2 225.8Q115.4 226.6 113.9 226.9L113.9 226.9L113.9 227.0Q115.7 227.2 116.5 228.1Q117.4 229.1 117.4 230.5L117.4 230.5Q117.4 231.7 116.8 232.7Q116.2 233.7 114.8 234.3Q113.5 234.9 111.3 234.9L111.3 234.9ZM107.7 228.0L107.7 232.8L111.0 232.8Q113.0 232.8 113.9 232.3Q114.8 231.7 114.8 230.5L114.8 230.5Q114.8 229.2 113.9 228.6Q113.0 228.0 111.0 228.0L111.0 228.0L107.7 228.0ZM107.7 221.9L107.7 226.0L110.7 226.0Q112.6 226.0 113.5 225.5Q114.4 225.0 114.4 223.9L114.4 223.9Q114.4 222.9 113.6 222.4Q112.8 221.9 111.1 221.9L111.1 221.9L107.7 221.9ZM120.2 235.0L120.2 235.0Q119.8 235.0 119.4 235.0Q119.0 234.9 118.7 234.8L118.7 234.8L118.7 232.7Q119.0 232.8 119.3 232.8Q119.5 232.8 119.8 232.8L119.8 232.8Q120.4 232.8 120.9 232.5Q121.3 232.2 121.6 231.5Q121.9 230.8 122.0 229.4L122.0 229.4Q122.1 228.4 122.1 227.5Q122.2 226.6 122.3 225.5Q122.3 224.5 122.4 223.1Q122.5 221.7 122.6 219.8L122.6 219.8L132.7 219.8L132.7 234.9L130.3 234.9L130.3 221.9L124.7 221.9Q124.6 223.2 124.6 224.3Q124.5 225.3 124.4 226.3Q124.4 227.2 124.3 228.0Q124.3 228.9 124.2 229.7L124.2 229.7Q123.9 232.6 123.0 233.8Q122.1 235.0 120.2 235.0ZM138.9 234.9L136.1 234.9L140.4 228.7Q138.9 228.4 138.0 227.5L138.0 227.5Q136.8 226.3 136.9 224.4L136.9 224.4Q136.9 222.2 138.3 221.0Q139.7 219.8 142.2 219.8L142.2 219.8L148.9 219.8L148.9 234.9L146.5 234.9L146.5 229.1L142.9 229.1L138.9 234.9ZM143.0 227.0L143.0 227.0L146.5 227.0L146.5 221.9L142.5 221.9Q140.9 221.9 140.2 222.5Q139.4 223.1 139.4 224.4L139.4 224.4Q139.4 225.7 140.3 226.4Q141.2 227.0 143.0 227.0ZM159.8 235.1L159.8 235.1Q157.7 235.1 156.1 234.3Q154.4 233.4 153.5 231.7Q152.6 230.0 152.6 227.5L152.6 227.5Q152.6 225.0 153.4 223.2Q154.3 221.5 155.8 220.5Q157.3 219.6 159.3 219.6L159.3 219.6Q161.2 219.6 162.6 220.4Q164.0 221.2 164.7 222.8Q165.4 224.3 165.4 226.3L165.4 226.3L165.4 227.9L155.2 227.9Q155.3 230.4 156.5 231.7Q157.7 233.0 160.0 233.0L160.0 233.0Q161.4 233.0 162.5 232.8Q163.6 232.5 164.8 232.0L164.8 232.0L164.8 234.2Q163.6 234.7 162.5 234.9Q161.4 235.1 159.8 235.1ZM155.2 225.9L155.2 225.9L162.8 225.9Q162.8 224.6 162.4 223.6Q162.1 222.7 161.3 222.1Q160.5 221.6 159.2 221.6L159.2 221.6Q157.5 221.6 156.5 222.7Q155.4 223.8 155.2 225.9ZM174.4 234.9L172.0 234.9L172.0 221.9L167.1 221.9L167.1 219.8L179.3 219.8L179.3 221.9L174.4 221.9L174.4 234.9Z M195.9 235.1L195.9 235.1Q194.4 235.1 193.1 234.6Q191.9 234.1 190.9 233.1Q190.0 232.1 189.5 230.6Q188.9 229.2 188.9 227.3L188.9 227.3Q188.9 224.8 189.8 223.1Q190.6 221.4 192.2 220.5Q193.8 219.6 195.9 219.6L195.9 219.6Q198.0 219.6 199.5 220.5Q201.1 221.4 202.0 223.1Q202.9 224.9 202.9 227.3L202.9 227.3Q202.9 229.2 202.4 230.7Q201.9 232.1 201.0 233.1Q200.1 234.1 198.8 234.6Q197.5 235.1 195.9 235.1ZM195.9 233.1L195.9 233.1Q198.2 233.1 199.2 231.5Q200.3 230.0 200.3 227.3L200.3 227.3Q200.3 224.7 199.2 223.1Q198.2 221.6 195.9 221.6L195.9 221.6Q193.6 221.6 192.6 223.1Q191.5 224.6 191.5 227.3L191.5 227.3Q191.5 230.0 192.6 231.5Q193.6 233.1 195.9 233.1ZM227.0 234.9L206.5 234.9L206.5 219.8L209.0 219.8L209.0 232.8L215.5 232.8L215.5 219.8L218.0 219.8L218.0 232.8L224.5 232.8L224.5 219.8L227.0 219.8L227.0 234.9ZM234.7 234.9L231.6 234.9L231.6 219.8L234.1 219.8L234.1 229.0Q234.1 229.3 234.0 230.0Q234.0 230.6 234.0 231.3Q233.9 231.9 233.9 232.3L233.9 232.3L233.9 232.3L241.2 219.8L244.3 219.8L244.3 234.9L241.8 234.9L241.8 226.0Q241.8 225.6 241.8 224.9Q241.9 224.2 241.9 223.5Q241.9 222.9 241.9 222.5L241.9 222.5L241.9 222.5L234.7 234.9ZM255.0 235.1L255.0 235.1Q252.8 235.1 251.3 234.1Q249.8 233.0 249.0 230.9Q248.2 228.8 248.1 225.7L248.1 225.7Q248.1 222.9 248.6 220.9Q249.1 218.8 250.0 217.4Q250.9 216.0 252.4 215.1Q253.8 214.3 255.8 214.0L255.8 214.0Q256.3 213.9 257.1 213.8Q257.9 213.6 258.9 213.5Q259.9 213.4 260.8 213.3L260.8 213.3L261.0 215.5Q260.1 215.6 259.1 215.7Q258.2 215.8 257.3 216.0Q256.5 216.1 256.0 216.2L256.0 216.2Q254.2 216.5 253.1 217.2Q252.0 217.9 251.4 219.2Q250.8 220.5 250.5 222.4L250.5 222.4L250.7 222.4Q251.1 221.7 251.9 221.2Q252.6 220.7 253.5 220.4Q254.5 220.2 255.7 220.2L255.7 220.2Q257.6 220.2 259.0 221.0Q260.5 221.8 261.2 223.4Q262.0 225.0 262.0 227.4L262.0 227.4Q262.0 229.8 261.2 231.5Q260.3 233.2 258.7 234.2Q257.2 235.1 255.0 235.1ZM255.1 233.1L255.1 233.1Q256.5 233.1 257.4 232.4Q258.4 231.8 258.9 230.5Q259.4 229.2 259.4 227.4L259.4 227.4Q259.4 224.8 258.4 223.5Q257.3 222.1 255.1 222.1L255.1 222.1Q253.0 222.1 251.9 223.4Q250.8 224.7 250.8 227.3L250.8 227.3Q250.8 229.2 251.3 230.5Q251.8 231.7 252.8 232.4Q253.8 233.1 255.1 233.1ZM278.0 234.9L275.2 234.9L270.7 228.2L268.2 228.2L268.2 234.9L265.7 234.9L265.7 219.8L268.2 219.8L268.2 226.1L270.7 226.1L275.1 219.8L277.6 219.8L272.7 227.0L278.0 234.9ZM283.7 234.9L280.6 234.9L280.6 219.8L283.0 219.8L283.0 229.0Q283.0 229.3 283.0 230.0Q283.0 230.6 282.9 231.3Q282.9 231.9 282.9 232.3L282.9 232.3L282.9 232.3L290.2 219.8L293.2 219.8L293.2 234.9L290.8 234.9L290.8 226.0Q290.8 225.6 290.8 224.9Q290.8 224.2 290.9 223.5Q290.9 222.9 290.9 222.5L290.9 222.5L290.9 222.5L283.7 234.9Z M308.9 234.9L305.9 234.9L305.9 219.8L308.3 219.8L308.3 229.0Q308.3 229.3 308.3 230.0Q308.3 230.6 308.2 231.3Q308.2 231.9 308.1 232.3L308.1 232.3L308.2 232.3L315.4 219.8L318.5 219.8L318.5 234.9L316.1 234.9L316.1 226.0Q316.1 225.6 316.1 224.9Q316.1 224.2 316.1 223.5Q316.1 222.9 316.2 222.5L316.2 222.5L316.1 222.5L308.9 234.9Z M337.0 235.1L337.0 235.1Q335.5 235.1 334.3 234.6Q333.0 234.1 332.1 233.1Q331.1 232.1 330.6 230.6Q330.1 229.2 330.1 227.3L330.1 227.3Q330.1 224.8 331.0 223.1Q331.8 221.4 333.4 220.5Q334.9 219.6 337.1 219.6L337.1 219.6Q339.1 219.6 340.7 220.5Q342.3 221.4 343.1 223.1Q344.0 224.9 344.0 227.3L344.0 227.3Q344.0 229.2 343.6 230.7Q343.1 232.1 342.1 233.1Q341.2 234.1 339.9 234.6Q338.6 235.1 337.0 235.1ZM337.1 233.1L337.1 233.1Q339.3 233.1 340.4 231.5Q341.4 230.0 341.4 227.3L341.4 227.3Q341.4 224.7 340.4 223.1Q339.3 221.6 337.0 221.6L337.0 221.6Q334.8 221.6 333.7 223.1Q332.7 224.6 332.7 227.3L332.7 227.3Q332.7 230.0 333.8 231.5Q334.8 233.1 337.1 233.1ZM350.2 234.9L347.8 234.9L347.8 219.8L360.0 219.8L360.0 234.9L357.5 234.9L357.5 221.9L350.2 221.9L350.2 234.9ZM370.9 235.1L370.9 235.1Q368.8 235.1 367.2 234.3Q365.5 233.4 364.6 231.7Q363.7 230.0 363.7 227.5L363.7 227.5Q363.7 225.0 364.5 223.2Q365.4 221.5 366.9 220.5Q368.3 219.6 370.3 219.6L370.3 219.6Q372.3 219.6 373.7 220.4Q375.0 221.2 375.8 222.8Q376.5 224.3 376.5 226.3L376.5 226.3L376.5 227.9L366.3 227.9Q366.4 230.4 367.6 231.7Q368.8 233.0 371.0 233.0L371.0 233.0Q372.5 233.0 373.6 232.8Q374.7 232.5 375.9 232.0L375.9 232.0L375.9 234.2Q374.7 234.7 373.6 234.9Q372.5 235.1 370.9 235.1ZM366.3 225.9L366.3 225.9L373.9 225.9Q373.9 224.6 373.5 223.6Q373.1 222.7 372.3 222.1Q371.5 221.6 370.3 221.6L370.3 221.6Q368.6 221.6 367.6 222.7Q366.5 223.8 366.3 225.9ZM391.9 234.9L389.4 234.9L389.4 228.9Q388.5 229.3 387.6 229.5L387.6 229.5Q386.4 229.8 385.1 229.8L385.1 229.8Q382.3 229.8 380.9 228.5Q379.5 227.2 379.5 224.7L379.5 224.7L379.5 219.8L381.9 219.8L381.9 224.5Q381.9 226.2 382.8 226.9Q383.6 227.7 385.5 227.7L385.5 227.7Q386.7 227.7 387.9 227.4L387.9 227.4Q388.6 227.2 389.4 226.9L389.4 226.9L389.4 219.8L391.9 219.8L391.9 234.9ZM400.3 235.1L400.3 235.1Q398.8 235.1 397.7 234.6Q396.6 234.1 396.1 233.1Q395.5 232.2 395.5 230.8L395.5 230.8Q395.5 228.5 397.3 227.2Q399.1 225.9 402.6 225.8L402.6 225.8L405.2 225.8L405.2 224.9Q405.2 223.2 404.4 222.4Q403.6 221.6 401.8 221.6L401.8 221.6Q400.8 221.6 399.7 221.9Q398.6 222.1 397.4 222.7L397.4 222.7L396.6 220.7Q398.0 220.1 399.3 219.8Q400.5 219.6 401.9 219.6L401.9 219.6Q404.7 219.6 406.1 220.8Q407.6 222.1 407.6 224.6L407.6 224.6L407.6 234.9L405.8 234.9L405.3 232.7L405.2 232.7Q404.5 233.5 403.8 234.1Q403.1 234.6 402.2 234.9Q401.4 235.1 400.3 235.1ZM400.9 233.1L400.9 233.1Q402.7 233.1 403.9 232.1Q405.1 231.0 405.1 228.8L405.1 228.8L405.1 227.6L402.9 227.7Q400.4 227.8 399.2 228.5Q398.1 229.2 398.1 230.7L398.1 230.7Q398.1 231.9 398.8 232.5Q399.5 233.1 400.9 233.1ZM417.5 234.9L415.1 234.9L415.1 221.9L410.3 221.9L410.3 219.8L422.4 219.8L422.4 221.9L417.5 221.9L417.5 234.9ZM437.5 234.9L434.7 234.9L430.2 228.2L427.7 228.2L427.7 234.9L425.2 234.9L425.2 219.8L427.7 219.8L427.7 226.1L430.2 226.1L434.6 219.8L437.1 219.8L432.2 227.0L437.5 234.9ZM443.2 234.9L440.1 234.9L440.1 219.8L442.5 219.8L442.5 229.0Q442.5 229.3 442.5 230.0Q442.5 230.6 442.5 231.3Q442.4 231.9 442.4 232.3L442.4 232.3L442.4 232.3L449.7 219.8L452.7 219.8L452.7 234.9L450.3 234.9L450.3 226.0Q450.3 225.6 450.3 224.9Q450.3 224.2 450.4 223.5Q450.4 222.9 450.4 222.5L450.4 222.5L450.4 222.5L443.2 234.9ZM458.2 232.1L460.8 232.1L460.6 233.1Q460.4 234.3 460.1 235.6Q459.8 236.9 459.4 238.0Q459.0 239.1 458.8 239.8L458.8 239.8L457.0 239.8Q457.1 239.2 457.3 238.1Q457.5 237.1 457.8 235.8Q458.0 234.5 458.1 233.2L458.1 233.2L458.2 232.1Z M475.7 241.6L473.2 241.6L473.2 219.8L475.2 219.8L475.6 221.9L475.7 221.9Q476.1 221.2 476.8 220.7Q477.4 220.2 478.3 219.9Q479.1 219.6 480.4 219.6L480.4 219.6Q483.1 219.6 484.8 221.5Q486.5 223.4 486.5 227.3L486.5 227.3Q486.5 229.9 485.7 231.6Q485.0 233.4 483.6 234.2Q482.2 235.1 480.3 235.1L480.3 235.1Q479.2 235.1 478.3 234.8Q477.4 234.5 476.8 234.0Q476.1 233.5 475.7 232.9L475.7 232.9L475.5 232.9Q475.6 233.4 475.6 234.2Q475.7 234.9 475.7 235.4L475.7 235.4L475.7 241.6ZM480.0 233.1L480.0 233.1Q481.3 233.1 482.2 232.3Q483.1 231.6 483.5 230.3Q483.9 229.0 483.9 227.3L483.9 227.3Q483.9 224.7 483.0 223.2Q482.0 221.6 479.9 221.6L479.9 221.6Q478.4 221.6 477.5 222.2Q476.5 222.8 476.1 223.9Q475.7 225.1 475.7 226.8L475.7 226.8L475.7 227.3Q475.7 229.2 476.1 230.5Q476.5 231.7 477.4 232.4Q478.3 233.1 480.0 233.1ZM493.9 235.1L493.9 235.1Q492.3 235.1 491.3 234.6Q490.2 234.1 489.7 233.1Q489.1 232.2 489.1 230.8L489.1 230.8Q489.1 228.5 490.9 227.2Q492.6 225.9 496.2 225.8L496.2 225.8L498.7 225.8L498.7 224.9Q498.7 223.2 497.9 222.4Q497.2 221.6 495.4 221.6L495.4 221.6Q494.4 221.6 493.3 221.9Q492.2 222.1 491.0 222.7L491.0 222.7L490.2 220.7Q491.6 220.1 492.9 219.8Q494.1 219.6 495.4 219.6L495.4 219.6Q498.3 219.6 499.7 220.8Q501.2 222.1 501.2 224.6L501.2 224.6L501.2 234.9L499.4 234.9L498.9 232.7L498.8 232.7Q498.1 233.5 497.4 234.1Q496.6 234.6 495.8 234.9Q494.9 235.1 493.9 235.1ZM494.5 233.1L494.5 233.1Q496.3 233.1 497.5 232.1Q498.7 231.0 498.7 228.8L498.7 228.8L498.7 227.6L496.5 227.7Q494.0 227.8 492.8 228.5Q491.7 229.2 491.7 230.7L491.7 230.7Q491.7 231.9 492.4 232.5Q493.1 233.1 494.5 233.1ZM511.9 235.1L511.9 235.1Q508.5 235.1 506.7 233.2Q504.8 231.2 504.8 227.5L504.8 227.5Q504.8 225.0 505.6 223.2Q506.5 221.5 508.1 220.5Q509.7 219.6 512.0 219.6L512.0 219.6Q513.1 219.6 514.2 219.8Q515.3 220.0 516.1 220.5L516.1 220.5L515.3 222.4Q514.5 222.0 513.7 221.8Q512.9 221.6 512.0 221.6L512.0 221.6Q509.7 221.6 508.5 223.1Q507.3 224.6 507.3 227.5L507.3 227.5Q507.3 230.3 508.5 231.7Q509.7 233.1 512.2 233.1L512.2 233.1Q513.0 233.1 513.9 232.9Q514.8 232.7 515.7 232.4L515.7 232.4L515.7 234.5Q515.0 234.8 514.0 234.9Q513.0 235.1 511.9 235.1ZM525.7 235.1L525.7 235.1Q522.4 235.1 520.5 233.2Q518.6 231.2 518.6 227.5L518.6 227.5Q518.6 225.0 519.4 223.2Q520.3 221.5 521.9 220.5Q523.5 219.6 525.8 219.6L525.8 219.6Q526.9 219.6 528.0 219.8Q529.1 220.0 529.9 220.5L529.9 220.5L529.1 222.4Q528.3 222.0 527.5 221.8Q526.7 221.6 525.8 221.6L525.8 221.6Q523.5 221.6 522.3 223.1Q521.1 224.6 521.1 227.5L521.1 227.5Q521.1 230.3 522.3 231.7Q523.5 233.1 526.0 233.1L526.0 233.1Q526.8 233.1 527.7 232.9Q528.7 232.7 529.5 232.4L529.5 232.4L529.5 234.5Q528.8 234.8 527.8 234.9Q526.8 235.1 525.7 235.1ZM538.7 234.9L536.3 234.9L536.3 221.9L531.5 221.9L531.5 219.8L543.6 219.8L543.6 221.9L538.7 221.9L538.7 234.9ZM550.1 235.1L550.1 235.1Q548.5 235.1 547.5 234.6Q546.4 234.1 545.9 233.1Q545.3 232.2 545.3 230.8L545.3 230.8Q545.3 228.5 547.1 227.2Q548.8 225.9 552.4 225.8L552.4 225.8L554.9 225.8L554.9 224.9Q554.9 223.2 554.1 222.4Q553.3 221.6 551.6 221.6L551.6 221.6Q550.6 221.6 549.5 221.9Q548.4 222.1 547.2 222.7L547.2 222.7L546.4 220.7Q547.8 220.1 549.0 219.8Q550.3 219.6 551.6 219.6L551.6 219.6Q554.5 219.6 555.9 220.8Q557.4 222.1 557.4 224.6L557.4 224.6L557.4 234.9L555.6 234.9L555.1 232.7L555.0 232.7Q554.3 233.5 553.6 234.1Q552.8 234.6 552.0 234.9Q551.1 235.1 550.1 235.1ZM550.7 233.1L550.7 233.1Q552.5 233.1 553.7 232.1Q554.9 231.0 554.9 228.8L554.9 228.8L554.9 227.6L552.7 227.7Q550.2 227.8 549.0 228.5Q547.9 229.2 547.9 230.7L547.9 230.7Q547.9 231.9 548.6 232.5Q549.3 233.1 550.7 233.1ZM568.0 234.9L562.0 234.9L562.0 219.8L568.0 219.8Q569.9 219.8 571.1 220.3Q572.4 220.7 573.0 221.6Q573.7 222.4 573.7 223.6L573.7 223.6Q573.7 224.9 572.9 225.8Q572.2 226.6 570.7 226.9L570.7 226.9L570.7 227.0Q572.4 227.2 573.3 228.1Q574.2 229.1 574.2 230.5L574.2 230.5Q574.2 231.7 573.5 232.7Q572.9 233.7 571.6 234.3Q570.2 234.9 568.0 234.9L568.0 234.9ZM564.5 228.0L564.5 232.8L567.8 232.8Q569.7 232.8 570.7 232.3Q571.6 231.7 571.6 230.5L571.6 230.5Q571.6 229.2 570.6 228.6Q569.7 228.0 567.7 228.0L567.7 228.0L564.5 228.0ZM564.5 221.9L564.5 226.0L567.4 226.0Q569.4 226.0 570.3 225.5Q571.2 225.0 571.2 223.9L571.2 223.9Q571.2 222.9 570.4 222.4Q569.6 221.9 567.9 221.9L567.9 221.9L564.5 221.9ZM576.9 235.0L576.9 235.0Q576.5 235.0 576.1 235.0Q575.8 234.9 575.4 234.8L575.4 234.8L575.4 232.7Q575.8 232.8 576.0 232.8Q576.3 232.8 576.5 232.8L576.5 232.8Q577.2 232.8 577.6 232.5Q578.1 232.2 578.3 231.5Q578.6 230.8 578.7 229.4L578.7 229.4Q578.8 228.4 578.9 227.5Q578.9 226.6 579.0 225.5Q579.1 224.5 579.1 223.1Q579.2 221.7 579.3 219.8L579.3 219.8L589.5 219.8L589.5 234.9L587.0 234.9L587.0 221.9L581.4 221.9Q581.3 223.2 581.3 224.3Q581.2 225.3 581.2 226.3Q581.1 227.2 581.1 228.0Q581.0 228.9 580.9 229.7L580.9 229.7Q580.6 232.6 579.8 233.8Q578.9 235.0 576.9 235.0ZM595.7 234.9L592.8 234.9L597.1 228.7Q595.6 228.4 594.7 227.5L594.7 227.5Q593.6 226.3 593.6 224.4L593.6 224.4Q593.6 222.2 595.0 221.0Q596.4 219.8 598.9 219.8L598.9 219.8L605.7 219.8L605.7 234.9L603.2 234.9L603.2 229.1L599.6 229.1L595.7 234.9ZM599.7 227.0L599.7 227.0L603.2 227.0L603.2 221.9L599.2 221.9Q597.7 221.9 596.9 222.5Q596.1 223.1 596.1 224.4L596.1 224.4Q596.1 225.7 597.0 226.4Q597.9 227.0 599.7 227.0ZM616.6 235.1L616.6 235.1Q614.4 235.1 612.8 234.3Q611.2 233.4 610.3 231.7Q609.3 230.0 609.3 227.5L609.3 227.5Q609.3 225.0 610.2 223.2Q611.0 221.5 612.5 220.5Q614.0 219.6 616.0 219.6L616.0 219.6Q617.9 219.6 619.3 220.4Q620.7 221.2 621.4 222.8Q622.2 224.3 622.2 226.3L622.2 226.3L622.2 227.9L611.9 227.9Q612.0 230.4 613.2 231.7Q614.5 233.0 616.7 233.0L616.7 233.0Q618.1 233.0 619.2 232.8Q620.3 232.5 621.5 232.0L621.5 232.0L621.5 234.2Q620.4 234.7 619.2 234.9Q618.1 235.1 616.6 235.1ZM612.0 225.9L612.0 225.9L619.6 225.9Q619.6 224.6 619.2 223.6Q618.8 222.7 618.0 222.1Q617.2 221.6 616.0 221.6L616.0 221.6Q614.2 221.6 613.2 222.7Q612.2 223.8 612.0 225.9ZM631.1 234.9L628.7 234.9L628.7 221.9L623.9 221.9L623.9 219.8L636.0 219.8L636.0 221.9L631.1 221.9L631.1 234.9Z M650.2 235.1L650.2 235.1Q648.9 235.1 647.6 234.9Q646.3 234.7 645.3 234.3L645.3 234.3L645.3 232.2Q646.5 232.6 647.7 232.9Q649.0 233.1 650.2 233.1L650.2 233.1Q652.2 233.1 653.1 232.5Q654.1 231.8 654.1 230.5L654.1 230.5Q654.1 229.3 653.1 228.6Q652.1 228.0 649.9 228.0L649.9 228.0L647.5 228.0L647.5 226.0L649.9 226.0Q651.8 226.0 652.7 225.5Q653.7 224.9 653.7 223.7L653.7 223.7Q653.7 222.7 652.9 222.1Q652.1 221.6 650.4 221.6L650.4 221.6Q649.4 221.6 648.4 221.8Q647.5 222.0 646.2 222.6L646.2 222.6L645.4 220.6Q646.5 220.1 647.8 219.8Q649.1 219.6 650.5 219.6L650.5 219.6Q653.2 219.6 654.7 220.6Q656.2 221.7 656.2 223.5L656.2 223.5Q656.2 224.8 655.4 225.7Q654.7 226.5 653.1 226.9L653.1 226.9L653.1 227.0Q654.9 227.3 655.8 228.3Q656.7 229.3 656.7 230.7L656.7 230.7Q656.7 232.8 655.0 234.0Q653.4 235.1 650.2 235.1ZM664.0 235.1L664.0 235.1Q662.5 235.1 661.4 234.6Q660.3 234.1 659.8 233.1Q659.2 232.2 659.2 230.8L659.2 230.8Q659.2 228.5 661.0 227.2Q662.8 225.9 666.3 225.8L666.3 225.8L668.9 225.8L668.9 224.9Q668.9 223.2 668.1 222.4Q667.3 221.6 665.5 221.6L665.5 221.6Q664.5 221.6 663.4 221.9Q662.3 222.1 661.1 222.7L661.1 222.7L660.3 220.7Q661.7 220.1 663.0 219.8Q664.3 219.6 665.6 219.6L665.6 219.6Q668.4 219.6 669.9 220.8Q671.3 222.1 671.3 224.6L671.3 224.6L671.3 234.9L669.5 234.9L669.0 232.7L668.9 232.7Q668.2 233.5 667.5 234.1Q666.8 234.6 665.9 234.9Q665.1 235.1 664.0 235.1ZM664.6 233.1L664.6 233.1Q666.4 233.1 667.6 232.1Q668.9 231.0 668.9 228.8L668.9 228.8L668.9 227.6L666.6 227.7Q664.1 227.8 663.0 228.5Q661.8 229.2 661.8 230.7L661.8 230.7Q661.8 231.9 662.5 232.5Q663.3 233.1 664.6 233.1ZM678.4 234.9L675.9 234.9L675.9 219.8L688.1 219.8L688.1 234.9L685.7 234.9L685.7 221.9L678.4 221.9L678.4 234.9ZM694.3 234.9L691.5 234.9L695.8 228.7Q694.3 228.4 693.4 227.5L693.4 227.5Q692.2 226.3 692.3 224.4L692.3 224.4Q692.3 222.2 693.7 221.0Q695.1 219.8 697.6 219.8L697.6 219.8L704.3 219.8L704.3 234.9L701.9 234.9L701.9 229.1L698.3 229.1L694.3 234.9ZM698.4 227.0L698.4 227.0L701.9 227.0L701.9 221.9L697.9 221.9Q696.3 221.9 695.6 222.5Q694.8 223.1 694.8 224.4L694.8 224.4Q694.8 225.7 695.7 226.4Q696.6 227.0 698.4 227.0ZM714.4 234.9L711.9 234.9L711.9 221.9L707.1 221.9L707.1 219.8L719.3 219.8L719.3 221.9L714.4 221.9L714.4 234.9ZM727.4 234.8L722.1 234.8L722.1 219.8L724.5 219.8L724.5 225.3L727.4 225.3Q730.5 225.3 732.1 226.5Q733.6 227.6 733.6 229.9L733.6 229.9Q733.6 232.3 732.0 233.5Q730.5 234.8 727.4 234.8L727.4 234.8ZM724.5 227.3L724.5 232.8L727.4 232.8Q729.3 232.8 730.2 232.1Q731.1 231.4 731.1 230.0L731.1 230.0Q731.1 228.6 730.2 228.0Q729.3 227.3 727.4 227.3L727.4 227.3L724.5 227.3ZM738.6 234.8L736.1 234.8L736.1 219.8L738.6 219.8L738.6 234.8ZM749.5 235.1L749.5 235.1Q747.4 235.1 745.8 234.3Q744.1 233.4 743.2 231.7Q742.3 230.0 742.3 227.5L742.3 227.5Q742.3 225.0 743.1 223.2Q743.9 221.5 745.4 220.5Q746.9 219.6 748.9 219.6L748.9 219.6Q750.9 219.6 752.3 220.4Q753.6 221.2 754.4 222.8Q755.1 224.3 755.1 226.3L755.1 226.3L755.1 227.9L744.9 227.9Q745.0 230.4 746.2 231.7Q747.4 233.0 749.6 233.0L749.6 233.0Q751.1 233.0 752.2 232.8Q753.3 232.5 754.4 232.0L754.4 232.0L754.4 234.2Q753.3 234.7 752.2 234.9Q751.1 235.1 749.5 235.1ZM744.9 225.9L744.9 225.9L752.5 225.9Q752.5 224.6 752.1 223.6Q751.7 222.7 750.9 222.1Q750.1 221.6 748.9 221.6L748.9 221.6Q747.2 221.6 746.1 222.7Q745.1 223.8 744.9 225.9Z M769.7 234.9L766.6 234.9L766.6 219.8L769.1 219.8L769.1 229.0Q769.1 229.3 769.0 230.0Q769.0 230.6 769.0 231.3Q768.9 231.9 768.9 232.3L768.9 232.3L768.9 232.3L776.2 219.8L779.3 219.8L779.3 234.9L776.8 234.9L776.8 226.0Q776.8 225.6 776.8 224.9Q776.9 224.2 776.9 223.5Q776.9 222.9 776.9 222.5L776.9 222.5L776.9 222.5L769.7 234.9Z M275.1 273.3L275.1 273.3Q273.8 273.3 272.5 273.0Q271.2 272.8 270.2 272.4L270.2 272.4L270.2 270.3Q271.4 270.7 272.6 271.0Q273.9 271.3 275.1 271.3L275.1 271.3Q277.1 271.3 278.0 270.6Q279.0 269.9 279.0 268.7L279.0 268.7Q279.0 267.4 278.0 266.8Q277.0 266.2 274.8 266.2L274.8 266.2L272.4 266.2L272.4 264.2L274.8 264.2Q276.7 264.2 277.6 263.6Q278.6 263.0 278.6 261.9L278.6 261.9Q278.6 260.8 277.8 260.3Q277.0 259.7 275.3 259.7L275.3 259.7Q274.3 259.7 273.3 259.9Q272.4 260.1 271.1 260.7L271.1 260.7L270.3 258.7Q271.4 258.2 272.7 258.0Q274.0 257.7 275.4 257.7L275.4 257.7Q278.1 257.7 279.6 258.7Q281.1 259.8 281.1 261.6L281.1 261.6Q281.1 262.9 280.3 263.8Q279.6 264.7 278.0 265.0L278.0 265.0L278.0 265.1Q279.8 265.5 280.7 266.4Q281.6 267.4 281.6 268.8L281.6 268.8Q281.6 270.9 279.9 272.1Q278.3 273.3 275.1 273.3ZM287.7 273.0L285.3 273.0L285.3 258.0L287.7 258.0L287.7 264.2L295.2 264.2L295.2 258.0L297.7 258.0L297.7 273.0L295.2 273.0L295.2 266.3L287.7 266.3L287.7 273.0ZM306.1 273.3L306.1 273.3Q304.6 273.3 303.5 272.8Q302.4 272.3 301.9 271.3Q301.3 270.3 301.3 268.9L301.3 268.9Q301.3 266.6 303.1 265.3Q304.9 264.1 308.4 264.0L308.4 264.0L311.0 263.9L311.0 263.0Q311.0 261.3 310.2 260.5Q309.4 259.7 307.6 259.7L307.6 259.7Q306.6 259.7 305.5 260.0Q304.4 260.3 303.2 260.8L303.2 260.8L302.4 258.9Q303.8 258.3 305.1 258.0Q306.4 257.7 307.7 257.7L307.7 257.7Q310.5 257.7 312.0 259.0Q313.4 260.2 313.4 262.7L313.4 262.7L313.4 273.0L311.6 273.0L311.1 270.8L311.0 270.8Q310.3 271.7 309.6 272.2Q308.9 272.8 308.0 273.0Q307.2 273.3 306.1 273.3ZM306.7 271.3L306.7 271.3Q308.5 271.3 309.7 270.2Q310.9 269.2 310.9 267.0L310.9 267.0L310.9 265.7L308.7 265.8Q306.2 265.9 305.1 266.6Q303.9 267.4 303.9 268.8L303.9 268.8Q303.9 270.0 304.6 270.6Q305.3 271.3 306.7 271.3ZM330.3 273.0L327.5 273.0L323.0 266.4L320.5 266.4L320.5 273.0L318.0 273.0L318.0 258.0L320.5 258.0L320.5 264.3L323.0 264.3L327.4 258.0L329.9 258.0L324.9 265.1L330.3 273.0ZM336.0 273.0L332.9 273.0L332.9 258.0L335.3 258.0L335.3 267.1Q335.3 267.5 335.3 268.1Q335.3 268.8 335.2 269.4Q335.2 270.0 335.2 270.4L335.2 270.4L335.2 270.4L342.5 258.0L345.5 258.0L345.5 273.0L343.1 273.0L343.1 264.1Q343.1 263.7 343.1 263.0Q343.1 262.3 343.1 261.7Q343.2 261.0 343.2 260.6L343.2 260.6L343.2 260.6L336.0 273.0Z M360.6 273.0L358.2 273.0L358.2 258.0L370.4 258.0L370.4 273.0L367.9 273.0L367.9 260.1L360.6 260.1L360.6 273.0ZM377.6 279.7L375.1 279.7L375.1 258.0L377.1 258.0L377.5 260.0L377.6 260.0Q378.0 259.4 378.7 258.8Q379.3 258.3 380.2 258.0Q381.1 257.7 382.3 257.7L382.3 257.7Q385.0 257.7 386.7 259.6Q388.4 261.6 388.4 265.5L388.4 265.5Q388.4 268.0 387.7 269.8Q386.9 271.5 385.5 272.4Q384.1 273.3 382.2 273.3L382.2 273.3Q381.1 273.3 380.2 273.0Q379.3 272.7 378.7 272.2Q378.0 271.7 377.6 271.1L377.6 271.1L377.4 271.1Q377.5 271.6 377.5 272.3Q377.6 273.0 377.6 273.5L377.6 273.5L377.6 279.7ZM381.9 271.2L381.9 271.2Q383.2 271.2 384.1 270.5Q385.0 269.7 385.4 268.4Q385.9 267.1 385.9 265.4L385.9 265.4Q385.9 262.9 384.9 261.3Q383.9 259.8 381.8 259.8L381.8 259.8Q380.3 259.8 379.4 260.3Q378.4 260.9 378.0 262.1Q377.6 263.2 377.6 265.0L377.6 265.0L377.6 265.5Q377.6 267.3 378.0 268.6Q378.4 269.9 379.3 270.6Q380.3 271.2 381.9 271.2ZM398.3 273.3L398.3 273.3Q396.2 273.3 394.6 272.4Q392.9 271.5 392.0 269.8Q391.1 268.1 391.1 265.6L391.1 265.6Q391.1 263.1 391.9 261.4Q392.8 259.6 394.3 258.7Q395.8 257.7 397.8 257.7L397.8 257.7Q399.7 257.7 401.1 258.5Q402.5 259.4 403.2 260.9Q403.9 262.4 403.9 264.5L403.9 264.5L403.9 266.0L393.7 266.0Q393.8 268.5 395.0 269.9Q396.2 271.2 398.5 271.2L398.5 271.2Q399.9 271.2 401.0 270.9Q402.1 270.6 403.3 270.1L403.3 270.1L403.3 272.3Q402.1 272.8 401.0 273.0Q399.9 273.3 398.3 273.3ZM393.8 264.0L393.8 264.0L401.3 264.0Q401.3 262.7 400.9 261.8Q400.6 260.8 399.8 260.3Q399.0 259.7 397.7 259.7L397.7 259.7Q396.0 259.7 395.0 260.8Q393.9 262.0 393.8 264.0ZM410.0 273.0L407.6 273.0L407.6 258.0L419.8 258.0L419.8 273.0L417.3 273.0L417.3 260.1L410.0 260.1L410.0 273.0ZM427.6 273.0L424.6 273.0L424.6 258.0L427.0 258.0L427.0 267.1Q427.0 267.5 427.0 268.1Q426.9 268.8 426.9 269.4Q426.8 270.0 426.8 270.4L426.8 270.4L426.8 270.4L434.1 258.0L437.2 258.0L437.2 273.0L434.7 273.0L434.7 264.1Q434.7 263.7 434.8 263.0Q434.8 262.3 434.8 261.7Q434.8 261.0 434.9 260.6L434.9 260.6L434.8 260.6L427.6 273.0ZM444.4 273.0L441.9 273.0L441.9 258.0L444.4 258.0L444.4 264.2L451.9 264.2L451.9 258.0L454.4 258.0L454.4 273.0L451.9 273.0L451.9 266.3L444.4 266.3L444.4 273.0ZM462.8 273.3L462.8 273.3Q461.2 273.3 460.2 272.8Q459.1 272.3 458.6 271.3Q458.0 270.3 458.0 268.9L458.0 268.9Q458.0 266.6 459.8 265.3Q461.5 264.1 465.1 264.0L465.1 264.0L467.6 263.9L467.6 263.0Q467.6 261.3 466.8 260.5Q466.0 259.7 464.3 259.7L464.3 259.7Q463.3 259.7 462.2 260.0Q461.1 260.3 459.9 260.8L459.9 260.8L459.1 258.9Q460.5 258.3 461.7 258.0Q463.0 257.7 464.3 257.7L464.3 257.7Q467.2 257.7 468.6 259.0Q470.1 260.2 470.1 262.7L470.1 262.7L470.1 273.0L468.3 273.0L467.8 270.8L467.7 270.8Q467.0 271.7 466.3 272.2Q465.5 272.8 464.7 273.0Q463.8 273.3 462.8 273.3ZM463.4 271.3L463.4 271.3Q465.2 271.3 466.4 270.2Q467.6 269.2 467.6 267.0L467.6 267.0L467.6 265.7L465.4 265.8Q462.9 265.9 461.7 266.6Q460.6 267.4 460.6 268.8L460.6 268.8Q460.6 270.0 461.3 270.6Q462.0 271.3 463.4 271.3ZM477.2 273.0L474.7 273.0L474.7 258.0L477.2 258.0L477.2 264.2L484.7 264.2L484.7 258.0L487.1 258.0L487.1 273.0L484.7 273.0L484.7 266.3L477.2 266.3L477.2 273.0ZM494.9 273.0L491.9 273.0L491.9 258.0L494.3 258.0L494.3 267.1Q494.3 267.5 494.3 268.1Q494.3 268.8 494.2 269.4Q494.2 270.0 494.2 270.4L494.2 270.4L494.2 270.4L501.5 258.0L504.5 258.0L504.5 273.0L502.1 273.0L502.1 264.1Q502.1 263.7 502.1 263.0Q502.1 262.3 502.1 261.7Q502.2 261.0 502.2 260.6L502.2 260.6L502.2 260.6L494.9 273.0ZM510.7 273.0L507.9 273.0L512.1 266.9Q510.7 266.5 509.8 265.6L509.8 265.6Q508.6 264.4 508.6 262.5L508.6 262.5Q508.6 260.4 510.0 259.2Q511.4 258.0 514.0 258.0L514.0 258.0L520.7 258.0L520.7 273.0L518.2 273.0L518.2 267.2L514.7 267.2L510.7 273.0ZM514.7 265.2L514.7 265.2L518.2 265.2L518.2 260.0L514.3 260.0Q512.7 260.0 511.9 260.7Q511.2 261.3 511.2 262.5L511.2 262.5Q511.2 263.8 512.1 264.5Q512.9 265.2 514.7 265.2ZM526.9 273.1L526.9 273.1Q526.2 273.1 525.7 272.6Q525.1 272.1 525.1 271.4L525.1 271.4Q525.1 270.6 525.7 270.1Q526.2 269.6 526.9 269.6L526.9 269.6Q527.6 269.6 528.2 270.1Q528.7 270.6 528.7 271.4L528.7 271.4Q528.7 271.8 528.5 272.3Q528.2 272.7 527.8 272.9Q527.4 273.1 526.9 273.1Z "/></svg>